<?xml version="1.0" standalone="no"?>
<!DOCTYPE svg PUBLIC "-//W3C//DTD SVG 20010904//EN"
 "http://www.w3.org/TR/2001/REC-SVG-20010904/DTD/svg10.dtd">
<svg version="1.0" xmlns="http://www.w3.org/2000/svg"
 width="749.000000pt" height="525.000000pt" viewBox="0 0 749.000000 525.000000"
 preserveAspectRatio="xMidYMid meet">

<g transform="translate(0.000000,525.000000) scale(0.100000,-0.100000)"
fill="#000000" stroke="none">
<path d="M85 5240 c18 -8 18 -9 -5 -10 -14 -2 -28 -2 -32 -1 -5 0 -8 -6 -8
-14 0 -8 -3 -14 -7 -14 -30 5 -33 -4 -33 -90 0 -62 4 -91 13 -95 9 -5 9 -7 0
-12 -8 -3 -13 -24 -13 -49 l0 -43 38 4 c127 15 247 26 317 31 57 4 84 10 94
22 11 14 12 2 6 -74 -3 -49 -8 -208 -11 -352 l-5 -263 23 0 c13 1 46 8 73 16
l50 14 -62 -5 -63 -5 -2 108 c-5 186 6 402 28 583 l6 46 45 7 c37 5 48 3 59
-11 12 -17 14 -16 41 9 18 17 45 29 74 33 l46 7 -5 -349 c-2 -205 -8 -353 -14
-360 -6 -7 -41 -22 -78 -35 -38 -12 -67 -25 -64 -29 5 -8 142 36 156 50 3 3 9
145 12 315 3 170 9 313 13 317 8 8 162 26 258 31 l49 2 -1 -244 c0 -135 -3
-611 -6 -1057 -3 -476 -1 -813 4 -813 11 0 12 80 15 770 3 581 13 1318 19
1338 3 7 23 12 54 12 27 0 62 5 78 11 58 22 64 21 59 -14 -3 -18 -8 -59 -12
-92 -3 -32 -8 -68 -10 -80 -6 -29 -7 -265 -1 -271 8 -8 209 45 250 66 21 11
44 20 51 20 31 0 38 29 41 182 5 253 0 225 43 232 36 6 113 14 337 36 148 15
157 16 180 25 38 13 45 14 45 6 0 -25 -288 -329 -359 -380 -86 -61 -171 -143
-171 -163 0 -12 18 -60 41 -107 43 -91 85 -194 143 -352 39 -105 42 -145 30
-327 l-7 -92 -131 0 c-72 0 -161 3 -199 7 l-67 6 2 276 3 276 75 7 c50 5 83 4
97 -4 18 -9 26 -8 40 5 10 8 32 17 48 20 l30 4 -29 2 c-16 0 -37 8 -47 17 -19
17 -39 11 -39 -12 0 -10 -14 -14 -57 -15 -86 0 -132 -5 -141 -13 -4 -4 -7
-138 -7 -297 l0 -289 50 0 c27 0 126 -3 219 -6 128 -5 170 -3 176 6 4 7 6 73
4 147 -2 84 0 132 6 128 6 -3 10 -13 10 -21 0 -8 11 -40 24 -72 35 -84 54
-323 37 -476 -7 -61 -15 -120 -17 -131 -4 -16 4 -24 33 -36 60 -26 83 -31 83
-20 0 13 -22 26 -40 23 -8 -1 -22 3 -30 8 -13 9 -13 11 0 19 9 7 20 6 30 -2
13 -11 13 -10 1 6 -9 11 -21 15 -34 11 -19 -6 -20 -4 -11 77 5 46 7 154 6 239
-2 85 -2 153 1 150 3 -3 26 -57 51 -120 26 -63 53 -126 60 -140 8 -14 50 -127
94 -250 44 -124 98 -265 120 -315 l40 -90 -4 -278 c-3 -273 -3 -279 18 -308
25 -33 52 -37 88 -12 35 24 38 30 45 99 l7 62 47 -4 c168 -12 252 -13 246 -4
-3 6 -45 10 -93 10 -48 0 -92 4 -99 8 -9 5 -13 51 -16 147 l-3 140 -2 -144 -2
-143 -31 6 c-17 3 -36 6 -41 6 -6 0 -9 81 -7 218 1 119 -2 226 -6 237 -4 11
-28 72 -52 135 -55 143 -83 212 -93 225 -4 6 -10 22 -14 38 -4 15 -17 51 -30
80 -13 28 -49 111 -79 182 -30 72 -76 174 -101 228 -25 53 -46 104 -46 112 0
21 78 21 86 0 7 -17 40 -20 50 -4 4 8 36 9 103 4 53 -4 92 -3 88 1 -4 5 -44
10 -89 11 -62 3 -84 7 -93 20 -10 14 -18 15 -36 7 -13 -6 -46 -10 -72 -10
l-48 2 -88 219 c-49 121 -100 245 -114 275 -13 30 -34 83 -46 117 l-22 63 76
93 c42 52 91 102 108 112 18 10 76 48 130 84 54 36 113 75 131 86 43 27 110
78 114 88 7 14 21 7 27 -14 4 -12 1 -27 -8 -37 -9 -9 -25 -42 -37 -72 -28 -69
-30 -199 -4 -237 22 -35 107 -71 199 -86 l77 -12 -4 -98 c-3 -54 -1 -100 4
-103 4 -3 8 42 8 100 0 118 -4 112 78 107 37 -3 182 29 182 40 0 4 -10 5 -22
3 -21 -4 -21 -4 -3 5 11 4 27 5 35 1 8 -4 34 1 59 11 48 21 52 36 5 19 -42
-16 -19 2 51 39 l60 33 -32 -29 -32 -28 -1 -388 c0 -374 -11 -612 -30 -647 -5
-10 -12 -55 -14 -101 -3 -46 -8 -123 -12 -171 -6 -85 -6 -88 15 -88 11 0 21 3
21 8 0 4 11 8 25 8 19 2 25 -3 26 -20 1 -15 3 -12 8 9 l6 30 76 0 c64 -1 80
-4 109 -26 19 -14 59 -36 89 -48 l53 -22 57 21 c31 12 64 26 74 31 15 8 17 3
17 -56 0 -36 4 -65 8 -65 5 0 8 35 6 78 -1 42 2 113 6 157 5 44 11 319 14 612
3 292 10 603 15 690 6 87 13 242 16 346 l6 187 -281 0 c-276 0 -280 0 -280
-21 0 -17 -4 -19 -22 -13 -13 3 -27 13 -31 21 -7 12 -213 14 -1433 12 -831 0
-1424 -5 -1424 -10 0 -5 -10 -9 -22 -8 -22 0 -22 1 -3 9 15 6 7 9 -30 9 -37 0
-45 -3 -30 -9z m384 -24 c-11 -9 -69 -15 -64 -6 3 6 20 10 37 10 17 0 29 -2
27 -4z m1146 -6 c3 -5 1 -10 -4 -10 -6 0 -11 5 -11 10 0 6 2 10 4 10 3 0 8 -4
11 -10z m1410 -20 c53 -33 35 -43 -61 -37 -75 4 -84 3 -89 -14 -6 -18 -18 -24
-39 -20 -4 1 -13 -2 -20 -7 -22 -18 -74 -22 -86 -7 -7 8 -19 15 -27 15 -12 0
-11 4 4 18 10 9 14 14 8 11 -16 -10 -75 -16 -75 -8 0 19 63 44 185 73 48 12
165 -3 200 -24z m-647 -26 c12 -4 22 -12 22 -19 0 -6 -53 -47 -117 -90 -65
-43 -109 -67 -98 -54 80 94 153 169 163 169 4 0 17 -3 30 -6z m-903 -24 c-3
-5 -16 -15 -28 -21 -22 -12 -22 -12 -3 10 19 21 43 30 31 11z m145 -10 c0 -11
-4 -20 -9 -20 -5 0 -7 9 -4 20 3 11 7 20 9 20 2 0 4 -9 4 -20z m-70 -95 c-4
-38 -8 -56 -10 -40 -2 17 -4 37 -5 45 -1 15 15 74 19 68 1 -2 -1 -34 -4 -73z
m50 -12 c-10 -16 -11 -15 -6 7 3 14 6 34 7 45 1 13 3 11 6 -7 2 -15 -1 -35 -7
-45z m1474 42 c9 -13 31 -40 50 -58 l34 -34 -90 5 c-149 8 -327 -24 -448 -81
-104 -49 -119 -47 -34 4 30 19 70 43 87 54 43 28 112 52 169 60 33 5 58 17 85
41 32 28 46 34 84 34 39 0 50 -4 63 -25z m-1598 -81 c-3 -8 -10 -12 -16 -9 -7
4 -6 14 2 28 12 24 24 8 14 -19z m121 -36 c-3 -8 -6 -5 -6 6 -1 11 2 17 5 13
3 -3 4 -12 1 -19z m1546 6 c70 -24 76 -37 41 -87 -50 -71 -177 -153 -292 -189
-26 -8 -40 -18 -37 -25 2 -7 0 -13 -5 -13 -6 0 -10 4 -10 8 0 4 -59 6 -131 4
-124 -4 -133 -3 -195 23 -90 38 -97 56 -43 106 135 125 521 225 672 173z
m-1591 -58 c-2 -5 -9 -1 -14 8 -5 9 -6 21 -2 28 9 14 25 -22 16 -36z m45 -8
c-3 -7 -5 -2 -5 12 0 14 2 19 5 13 2 -7 2 -19 0 -25z m2010 -85 c-2 -21 -4 -4
-4 37 0 41 2 58 4 38 2 -21 2 -55 0 -75z m-2130 0 c-3 -10 -5 -4 -5 12 0 17 2
24 5 18 2 -7 2 -21 0 -30z m1683 -6 c0 -2 -10 -12 -22 -23 l-23 -19 19 23 c18
21 26 27 26 19z m-1760 -41 c0 -8 -4 -18 -10 -21 -5 -3 -10 3 -10 14 0 12 5
21 10 21 6 0 10 -6 10 -14z m130 -17 c0 -4 -8 -9 -18 -11 -16 -5 -17 -2 -8 18
10 20 25 16 26 -7z m1720 -79 c0 -70 -4 -110 -11 -110 -10 0 -12 195 -2 213
11 19 13 -1 13 -103z m125 79 c4 -12 9 -47 10 -78 5 -79 8 -77 15 9 6 71 6 69
8 -43 2 -92 -1 -116 -10 -110 -7 4 -22 7 -33 8 -19 0 -20 8 -23 118 -2 97 0
117 12 117 8 0 18 -10 21 -21z m222 -61 c-3 -7 -5 -2 -5 12 0 14 2 19 5 13 2
-7 2 -19 0 -25z m-357 -722 c0 -300 -4 -556 -9 -568 -5 -14 -7 126 -5 342 3
201 5 459 4 574 0 115 3 207 6 204 3 -3 5 -252 4 -552z m-62 519 c3 -3 -18 -5
-47 -5 -33 0 -50 4 -46 10 6 10 82 6 93 -5z m-1308 -45 c9 0 31 -68 27 -83 -1
-5 6 -13 16 -18 9 -6 17 -16 17 -24 0 -11 -6 -10 -24 6 -14 12 -22 28 -19 39
3 10 0 21 -6 24 -5 4 -8 13 -4 21 3 8 0 15 -6 15 -15 0 -33 38 -24 53 5 8 9 5
11 -10 2 -13 7 -23 12 -23z m1540 -27 c3 -3 6 -74 8 -160 2 -108 0 -153 -7
-148 -6 3 -12 32 -13 63 l-1 57 -6 -58 c-6 -57 -6 -57 -28 -42 -22 15 -23 22
-23 160 l0 145 33 -7 c17 -3 34 -8 37 -10z m-1355 -383 c3 -5 1 -10 -4 -10 -6
0 -11 5 -11 10 0 6 2 10 4 10 3 0 8 -4 11 -10z m20 -57 c8 -20 13 -38 10 -41
-4 -4 -35 59 -35 73 0 15 12 1 25 -32z m1508 -201 c-3 -128 -8 -230 -10 -228
-7 6 -4 312 3 394 4 40 8 71 9 70 2 -2 1 -108 -2 -236z m-205 206 c7 -7 13
-30 13 -52 2 -34 3 -36 6 -11 3 17 9 34 14 40 6 6 9 -28 7 -95 -3 -87 -6 -104
-18 -101 -8 2 -21 4 -29 5 -22 4 -30 34 -30 127 -1 98 7 117 37 87z m34 -333
c7 -10 12 -295 5 -295 -2 0 -18 7 -35 16 l-32 15 0 139 0 139 28 -2 c15 -1 30
-6 34 -12z m-1192 -29 c-14 -14 -22 -2 -14 18 5 14 9 15 15 4 4 -7 4 -17 -1
-22z m49 -88 c1 -5 -6 -8 -14 -8 -15 0 -21 31 -8 44 7 6 20 -17 22 -36z m1
-54 c0 -8 -4 -12 -10 -9 -5 3 -10 10 -10 16 0 5 5 9 10 9 6 0 10 -7 10 -16z
m38 -54 c6 -22 12 -49 12 -60 0 -13 4 -19 11 -14 8 4 9 0 4 -15 -3 -12 -2 -21
4 -21 5 0 12 -13 16 -29 3 -16 13 -35 21 -42 8 -6 14 -23 14 -38 0 -15 8 -31
20 -39 12 -7 22 -28 26 -52 4 -22 11 -43 15 -46 5 -3 9 -18 9 -34 0 -15 6 -30
14 -33 17 -7 28 -47 13 -47 -14 0 -37 46 -37 75 0 11 -9 27 -20 35 -11 8 -20
20 -20 26 0 6 -13 36 -30 67 -17 33 -30 72 -30 92 0 22 -6 38 -15 41 -8 4 -15
15 -15 25 0 10 -4 19 -10 19 -5 0 -10 14 -10 30 0 17 -4 30 -9 30 -11 0 -24
48 -16 60 11 18 20 10 33 -30z m709 -62 c-3 -7 -5 -2 -5 12 0 14 2 19 5 13 2
-7 2 -19 0 -25z m-501 -660 c-2 -35 0 -71 5 -80 7 -13 6 -18 -4 -18 -25 0 -39
132 -16 146 8 5 8 9 -1 14 -7 4 -9 13 -5 20 15 24 26 -18 21 -82z m14 -129 c0
-10 -6 -20 -12 -22 -10 -4 -10 -8 -1 -14 12 -9 17 -162 5 -178 -4 -5 -13 -11
-20 -13 -10 -2 -10 2 0 18 9 14 10 27 1 52 -5 18 -11 65 -12 103 -1 64 1 71
19 71 12 0 20 -7 20 -17z m-20 -259 c0 -5 -5 -10 -11 -10 -5 0 -7 5 -4 10 3 6
8 10 11 10 2 0 4 -4 4 -10z"/>
<path d="M2760 5140 c0 -11 4 -20 8 -20 4 0 8 9 9 20 1 11 -2 20 -8 20 -5 0
-9 -9 -9 -20z"/>
<path d="M6210 5240 c63 -4 158 -10 210 -14 139 -9 467 -43 621 -65 235 -34
224 -18 215 -319 -3 -125 -11 -297 -16 -382 -6 -85 -12 -218 -15 -295 -3 -77
-10 -246 -15 -375 -5 -129 -14 -392 -20 -585 -10 -336 -14 -387 -46 -610 -17
-116 -27 -129 -91 -121 -66 9 -409 20 -403 13 8 -8 99 -14 316 -22 98 -3 193
-8 210 -11 l31 -4 6 -167 c9 -210 9 -428 1 -436 -4 -3 -12 0 -20 7 -12 13
-144 26 -292 30 -40 1 -43 3 -40 26 3 37 -92 159 -215 275 -167 158 -225 189
-387 206 -52 5 -142 15 -199 22 l-104 12 -3 59 -3 58 84 -6 c96 -7 235 -20
449 -41 82 -8 150 -15 152 -15 2 0 4 4 4 9 0 8 -156 26 -325 36 -49 3 -148 12
-220 20 -71 8 -209 22 -305 30 -96 9 -182 18 -190 20 -18 5 -450 44 -560 51
-41 2 -112 8 -157 12 -46 4 -83 5 -83 1 0 -7 63 -15 198 -25 l92 -7 0 -31 c-1
-49 -35 -114 -71 -134 -17 -9 -47 -27 -67 -40 -31 -21 -40 -22 -81 -13 -25 6
-88 15 -138 22 -51 7 -93 14 -93 16 0 3 19 26 41 51 40 46 109 176 109 207 0
10 9 15 28 15 26 1 26 1 8 15 -30 23 -11 63 44 95 56 33 90 81 90 129 0 69
-21 166 -51 236 -20 47 -33 98 -39 155 -9 95 -39 158 -122 256 -95 112 -241
219 -314 230 -47 7 -116 2 -146 -11 -16 -6 -18 0 -18 54 0 42 6 73 20 98 40
75 15 167 -58 216 -41 26 -169 52 -241 49 -60 -4 -171 -70 -171 -102 0 -5 -8
-8 -17 -7 -19 1 -20 13 -9 212 4 71 19 673 19 767 0 21 4 35 8 32 4 -2 10 -1
12 3 9 14 366 2 672 -22 99 -8 252 -14 340 -15 88 0 207 -4 265 -9 58 -6 186
-13 285 -16 214 -8 258 -10 350 -18 39 -4 133 -9 210 -12 166 -7 297 -14 345
-20 19 -2 96 -7 170 -10 154 -6 421 -31 495 -46 28 -5 61 -11 74 -14 13 -2 25
-6 27 -8 8 -7 10 -526 3 -667 -4 -85 -10 -238 -14 -339 -3 -101 -8 -206 -10
-235 -1 -28 -8 -130 -14 -226 -23 -342 -54 -609 -72 -622 -15 -10 -292 -3
-310 7 -11 7 -239 16 -361 15 -49 -1 -94 3 -103 8 -5 4 -30 7 -55 8 -25 1 -65
5 -90 9 -25 3 -61 8 -80 10 -19 3 -53 6 -75 9 -161 18 -202 18 -208 3 -3 -9
-2 -19 3 -22 14 -9 120 -22 235 -30 39 -3 90 -7 115 -10 25 -3 164 -14 310
-25 146 -12 288 -23 315 -26 28 -2 103 -6 167 -8 64 -2 121 -7 127 -10 5 -4
21 4 36 16 26 23 26 27 45 263 22 281 29 384 35 520 3 55 8 125 11 155 4 30 8
75 9 100 2 25 6 106 10 180 11 221 20 717 15 834 l-5 109 -38 13 c-32 11 -184
30 -392 48 -22 2 -98 9 -170 15 -163 14 -537 38 -715 46 -74 4 -180 10 -235
15 -101 9 -448 24 -830 35 -115 4 -212 8 -215 10 -3 1 -88 6 -190 10 -102 4
-187 8 -190 10 -3 2 -72 6 -155 10 -124 5 -153 4 -170 -8 -17 -13 -20 -32 -26
-178 -8 -182 -22 -826 -20 -875 1 -18 -5 -37 -15 -44 -23 -20 -54 -85 -54
-117 0 -15 -12 -44 -26 -65 -23 -33 -27 -48 -28 -127 -1 -82 1 -91 23 -115 14
-15 41 -31 62 -37 l37 -12 -6 -61 c-4 -47 -13 -72 -38 -109 -71 -103 -118
-304 -85 -365 6 -9 17 -38 27 -65 9 -26 27 -59 40 -75 13 -15 24 -36 24 -48 0
-31 42 -87 72 -98 23 -8 31 -5 53 16 21 21 63 38 95 38 4 0 2 -17 -5 -37 -8
-24 -10 -42 -4 -49 5 -6 7 -18 3 -27 -3 -8 -1 -18 5 -22 6 -3 11 -1 11 6 0 8
4 8 15 -1 12 -10 15 -9 15 8 0 11 7 22 15 26 8 3 15 15 15 27 0 12 16 43 35
70 34 46 37 47 66 37 21 -7 42 -7 71 0 23 6 46 8 51 5 14 -9 -23 -33 -50 -33
-41 0 -25 -15 30 -28 29 -6 58 -12 65 -12 21 0 62 51 62 77 0 24 14 32 71 46
26 7 26 6 22 -36 -8 -80 31 -113 98 -83 l34 14 -31 1 c-48 1 -57 34 -38 128 2
12 13 24 23 28 10 3 30 17 43 30 l24 24 -4 -87 c-4 -76 -2 -90 16 -112 11 -14
24 -22 28 -18 4 4 2 14 -5 22 -6 7 -14 49 -18 92 -9 125 37 284 84 284 7 0 13
-4 13 -10 0 -5 7 -10 15 -10 20 0 19 -4 -11 -64 -14 -28 -30 -58 -34 -66 -4
-9 -11 -31 -15 -49 -6 -29 -5 -33 10 -28 9 4 26 0 38 -8 12 -8 16 -15 10 -15
-6 0 -19 -20 -28 -45 -18 -46 -14 -93 8 -107 17 -11 47 -10 47 2 0 6 -7 10
-16 10 -26 0 -12 81 17 100 12 8 40 33 61 54 l38 39 0 -71 c0 -39 -5 -84 -11
-99 -7 -15 -17 -41 -24 -58 -7 -16 -22 -62 -34 -101 -27 -93 -63 -159 -114
-212 -64 -66 -71 -68 -109 -28 -18 19 -48 53 -66 75 -18 23 -40 41 -48 41 -8
0 -14 5 -14 10 0 6 -7 10 -16 10 -15 0 -16 11 -11 93 2 50 8 100 12 110 4 10
3 17 -4 17 -17 0 -33 -79 -35 -169 l-1 -84 -43 -12 c-23 -7 -48 -18 -55 -23
-36 -30 -251 -81 -312 -74 -11 2 -56 21 -100 43 -44 22 -69 31 -55 19 40 -32
141 -80 170 -80 65 0 211 33 285 64 97 42 160 59 184 51 10 -3 32 -25 50 -50
71 -99 143 -135 331 -165 41 -7 91 -20 110 -30 47 -24 166 -150 223 -236 25
-38 59 -85 77 -104 17 -19 43 -55 57 -80 14 -25 54 -90 88 -145 34 -55 87
-143 118 -195 31 -52 88 -129 127 -170 84 -89 91 -121 38 -173 -51 -51 -78
-97 -77 -131 1 -29 2 -29 15 13 8 26 34 65 65 98 44 47 50 58 45 84 -5 25 -3
29 17 29 28 0 46 -14 77 -59 33 -48 85 -98 111 -106 13 -4 51 -30 85 -57 59
-46 63 -52 74 -106 6 -31 23 -93 37 -136 14 -43 28 -111 31 -150 8 -126 -29
-179 -178 -256 -23 -12 -24 -12 -12 3 8 9 12 24 10 33 -3 16 -6 15 -29 -7 -14
-13 -31 -33 -37 -44 -6 -11 -41 -36 -79 -55 -37 -19 -72 -39 -78 -43 -5 -5
-32 -22 -60 -38 -27 -16 -79 -50 -115 -74 -35 -25 -83 -50 -105 -55 -22 -6
-52 -14 -66 -18 -14 -5 -35 -5 -47 -1 -12 5 -22 5 -22 0 0 -11 -84 -32 -145
-37 l-50 -4 -49 67 c-56 75 -81 133 -106 246 -10 43 -21 81 -24 84 -12 13 -4
-85 13 -150 20 -79 11 -77 -14 3 -10 30 -24 64 -31 75 -14 19 -14 19 -14 0 0
-36 57 -185 84 -220 15 -19 24 -35 20 -35 -12 0 -92 87 -98 108 -4 11 -15 27
-26 37 -16 14 -23 15 -34 6 -12 -10 -19 -6 -39 26 -14 21 -32 64 -41 96 -19
67 -41 78 -33 16 7 -53 51 -141 89 -179 28 -29 31 -30 44 -13 8 11 13 13 14 5
0 -7 11 -30 25 -53 14 -22 23 -45 19 -51 -4 -6 -8 -25 -10 -42 -2 -17 -6 -50
-9 -74 l-6 -42 1295 0 1296 0 0 270 0 271 -32 -1 c-44 -1 -228 29 -248 40 -16
10 102 7 218 -6 l62 -6 0 445 0 445 -30 11 c-25 8 -30 15 -30 41 0 17 -5 41
-11 52 -23 43 -101 97 -159 111 l-25 6 -2 391 -3 390 48 -23 c26 -13 76 -29
112 -36 36 -7 73 -14 83 -17 9 -3 17 -1 17 5 0 6 -7 11 -16 11 -39 0 -191 42
-214 60 -36 28 -17 36 26 11 32 -19 151 -51 190 -51 17 0 19 16 2 18 -7 0 -47
8 -89 15 -114 22 -148 46 -93 67 45 17 62 12 69 -20 4 -17 10 -28 15 -25 8 5
6 69 -6 245 -12 159 -11 174 7 178 13 2 17 -11 23 -80 8 -106 47 -350 58 -362
11 -13 10 85 -1 176 -19 144 -20 198 -6 198 9 0 15 -23 20 -77 4 -43 8 -82 10
-88 2 -5 4 574 4 1287 l1 1298 -697 -2 c-412 0 -651 -4 -583 -8z m-2450 -1244
c0 -15 -18 -31 -26 -23 -7 7 7 37 17 37 5 0 9 -6 9 -14z m-40 -154 c-26 -49
-20 -102 18 -147 25 -30 15 -48 -14 -24 -46 38 -58 186 -18 216 30 22 37 -1
14 -45z m115 -232 c3 -6 17 -7 31 -4 40 10 27 -9 -25 -38 -27 -16 -51 -28 -54
-28 -2 0 -4 14 -2 31 3 39 35 64 50 39z m3462 -62 c-3 -7 -5 -2 -5 12 0 14 2
19 5 13 2 -7 2 -19 0 -25z m10 -200 c-2 -13 -4 -3 -4 22 0 25 2 35 4 23 2 -13
2 -33 0 -45z m0 -268 c-2 -55 -7 -103 -10 -106 -4 -4 -6 41 -6 100 0 66 4 106
10 106 7 0 9 -35 6 -100z m83 0 c0 -13 -7 -20 -20 -20 -13 0 -20 7 -20 20 0
13 7 20 20 20 13 0 20 -7 20 -20z m74 -152 c5 -56 -3 -92 -19 -76 -9 9 -18
105 -12 122 13 32 24 14 31 -46z m-3664 -58 c0 -5 -4 -10 -9 -10 -6 0 -13 5
-16 10 -3 6 1 10 9 10 9 0 16 -4 16 -10z m3500 -162 c0 -61 -2 -109 -4 -107
-15 15 -15 219 0 219 2 0 4 -50 4 -112z m-2080 -93 c30 -4 105 -11 165 -16
132 -11 186 -17 285 -30 41 -5 113 -12 160 -15 47 -4 90 -11 95 -16 6 -5 10
-40 9 -77 -1 -81 -42 -206 -86 -263 l-29 -37 -117 1 c-64 0 -163 6 -219 12
-57 7 -103 9 -103 4 0 -4 9 -9 20 -9 11 -1 23 -2 28 -3 4 -2 46 -6 94 -10 68
-7 85 -11 81 -22 -3 -9 1 -14 12 -14 9 0 13 5 10 10 -3 6 1 10 10 10 9 0 13
-4 10 -10 -7 -11 -4 -11 92 -14 l62 -2 39 46 c45 53 83 124 102 193 7 26 16
47 20 47 4 0 90 -9 191 -20 193 -21 249 -35 327 -78 53 -30 292 -263 339 -332
29 -43 30 -48 18 -83 -7 -20 -19 -47 -27 -59 -8 -13 -18 -32 -22 -42 -7 -20
-6 -20 14 -1 12 10 28 33 36 51 11 24 20 31 35 27 10 -3 16 -10 13 -15 -3 -5
-12 -7 -20 -4 -8 3 -14 -1 -14 -9 0 -8 6 -15 13 -16 6 0 19 -2 27 -4 8 -1 32
-6 54 -9 21 -3 42 -9 47 -11 17 -11 145 -22 169 -15 30 9 50 -9 49 -42 l0 -23
-9 23 c-12 29 -24 28 -38 -3 -11 -24 -10 -25 18 -25 16 0 31 -3 33 -7 3 -5
-59 -8 -138 -9 -123 -1 -153 -5 -209 -24 -36 -13 -78 -36 -93 -52 l-27 -28 1
-308 c1 -169 -1 -297 -4 -284 -5 25 -7 26 -33 12 -13 -7 -21 -7 -25 0 -13 20
-35 10 -35 -16 0 -26 -1 -27 -46 -20 -26 3 -52 2 -58 -2 -27 -19 -90 -33 -122
-28 -21 5 -34 3 -34 -4 0 -6 -10 -8 -25 -4 -15 4 -25 2 -25 -5 0 -19 -18 -12
-25 9 -7 21 -45 28 -45 8 0 -6 -6 -3 -14 7 -13 18 -14 18 -31 2 -10 -10 -15
-26 -12 -37 6 -23 -8 -27 -17 -5 -3 8 -12 15 -20 15 -10 0 -13 6 -10 15 9 24
-12 17 -25 -7 l-12 -23 5 23 c2 12 0 20 -4 17 -5 -3 -11 1 -14 7 -3 7 -3 0 1
-17 3 -16 2 -26 -3 -22 -4 4 -9 15 -10 25 -12 79 -26 102 -97 155 -34 26 -37
32 -31 60 3 18 10 34 15 35 5 2 9 10 9 18 0 8 5 14 10 14 6 0 10 8 11 18 0 9
9 31 20 47 24 39 39 73 39 91 0 8 5 14 10 14 14 0 30 43 21 53 -4 4 -22 9 -39
10 -36 2 -40 14 -16 43 11 13 14 14 11 3 -3 -9 0 -16 6 -16 7 0 19 -3 27 -7 8
-3 21 -2 29 3 19 12 6 61 -16 61 -9 0 -21 7 -27 15 -12 16 -125 28 -366 39
-58 2 -125 9 -150 16 -25 6 -60 12 -79 13 -19 1 -36 7 -38 12 -4 13 149 77
168 71 8 -3 57 -7 109 -10 52 -3 113 -8 135 -10 22 -3 76 -7 120 -10 44 -4
103 -10 130 -15 116 -22 401 -71 413 -71 19 0 14 24 -9 49 -12 12 -19 24 -16
27 2 3 28 -23 57 -56 70 -80 84 -88 115 -58 14 13 25 27 25 32 0 6 18 40 41
78 22 37 39 73 37 79 -2 7 -13 -3 -24 -23 -65 -118 -90 -158 -99 -158 -5 0
-18 18 -27 38 -10 21 -54 76 -99 121 -126 129 -239 175 -514 211 -77 10 -189
26 -250 35 -60 8 -130 18 -155 20 -25 3 -101 12 -170 20 -69 8 -150 17 -180
20 -66 7 -66 7 -108 68 l-34 48 59 -5 c32 -3 117 -8 188 -11 72 -4 151 -9 178
-12 31 -3 47 -1 47 6 0 7 -24 11 -62 11 -35 0 -112 4 -173 9 -60 6 -141 12
-179 15 -121 9 -86 18 56 14 75 -1 134 0 130 4 -4 4 -68 10 -141 13 l-134 6
-42 37 c-79 71 -98 84 -141 99 -24 8 -44 17 -44 19 0 2 17 11 38 19 55 23 159
93 175 118 8 13 18 43 22 67 9 55 21 71 49 66 11 -3 46 -8 76 -11z m2140 -45
c0 -12 -69 -42 -84 -37 -6 3 3 10 19 17 17 7 37 16 45 20 20 12 20 12 20 0z
m-2659 -160 c36 -5 91 -10 122 -11 64 -2 71 -11 27 -29 -32 -13 -114 -8 -134
10 -7 5 -29 11 -49 13 -21 2 -43 9 -49 15 -15 15 -6 15 83 2z m1079 -270 c11
-7 -3 -10 -47 -10 -34 0 -65 5 -68 10 -8 13 95 13 115 0z m-325 -141 c157 -13
225 -34 80 -24 -170 11 -315 28 -315 38 0 5 21 6 48 3 26 -3 110 -11 187 -17z
m354 -45 c10 -10 -7 -12 -51 -7 -27 3 -48 9 -48 14 0 7 91 1 99 -7z m214 -30
c132 -16 262 -51 352 -93 61 -29 132 -89 204 -174 74 -87 43 -67 -66 43 -69
69 -124 115 -153 128 -58 26 -184 55 -379 87 -85 14 -157 28 -160 31 -3 4 14
4 39 0 25 -4 98 -14 163 -22z m-255 -46 c7 -7 12 -19 12 -27 0 -11 -4 -11 -19
3 -21 19 -35 9 -20 -14 7 -13 9 -13 9 -1 0 8 2 12 5 9 3 -3 3 -13 -1 -22 -6
-16 -8 -16 -27 1 -19 17 -19 17 -13 -3 5 -16 0 -23 -20 -32 -14 -7 -30 -9 -36
-6 -7 4 -8 2 -4 -4 13 -21 -5 -13 -25 11 -25 30 -24 33 14 48 17 7 43 21 56
31 27 21 52 23 69 6z m-158 -28 c0 -5 -2 -10 -4 -10 -3 0 -8 5 -11 10 -3 6 -1
10 4 10 6 0 11 -4 11 -10z m17 -84 c-3 -10 -135 -78 -174 -90 -18 -6 -25 -1
-38 24 l-16 30 73 33 c40 18 84 38 98 44 21 9 28 8 42 -11 10 -11 16 -25 15
-30z m703 -92 c0 -2 -9 -4 -21 -4 -11 0 -18 4 -14 10 5 8 35 3 35 -6z m906
-16 c74 -17 162 -70 170 -104 8 -31 -10 -52 -66 -76 -36 -16 -70 -20 -172 -21
-69 -1 -124 -5 -122 -8 8 -14 229 -9 288 6 32 9 61 14 63 11 13 -13 -57 -401
-93 -517 -16 -50 -29 -59 -96 -59 -20 0 -38 -6 -41 -12 -3 -9 -30 -13 -93 -12
-115 1 -190 18 -247 54 l-45 28 -6 94 c-9 146 -12 488 -4 488 4 0 10 -4 13
-10 3 -5 11 -10 17 -10 7 0 2 9 -11 21 -104 97 194 182 445 127z m-1636 -68
c36 -5 130 -10 210 -11 239 -1 263 -10 221 -80 -11 -19 -43 -79 -70 -134 -27
-55 -63 -115 -79 -134 l-30 -33 -41 56 c-34 46 -47 56 -71 56 -23 0 -45 15
-103 73 -63 62 -157 193 -157 219 0 4 12 5 28 3 15 -3 56 -10 92 -15z m1097
-636 c-3 -3 -12 -4 -19 -1 -8 3 -5 6 6 6 11 1 17 -2 13 -5z m-92 -14 c4 -6 -5
-10 -19 -10 -14 0 -26 -5 -26 -12 0 -6 -2 -9 -5 -6 -3 3 -3 13 1 22 7 18 39
22 49 6z m-95 -4 c0 -2 -7 -7 -16 -10 -8 -3 -12 -2 -9 4 6 10 25 14 25 6z
m-251 -23 c-7 -10 -15 -20 -16 -22 -2 -2 -3 5 -3 17 0 14 6 22 16 22 14 0 15
-3 3 -17z m-89 -1 c0 -13 -12 -22 -22 -16 -10 6 -1 24 13 24 5 0 9 -4 9 -8z
m230 -22 c0 -5 -5 -10 -11 -10 -5 0 -7 5 -4 10 3 6 8 10 11 10 2 0 4 -4 4 -10z
m-80 -10 c0 -5 -2 -10 -4 -10 -3 0 -8 5 -11 10 -3 6 -1 10 4 10 6 0 11 -4 11
-10z"/>
<path d="M6425 2181 c-9 -28 -34 -77 -55 -110 -51 -79 -73 -121 -62 -121 15 0
130 203 137 243 10 52 0 46 -20 -12z"/>
<path d="M7058 1763 c7 -3 16 -2 19 1 4 3 -2 6 -13 5 -11 0 -14 -3 -6 -6z"/>
<path d="M7095 1760 c-3 -5 1 -10 9 -10 9 0 16 -7 16 -17 0 -9 3 -14 6 -10 8
8 -5 47 -16 47 -5 0 -12 -4 -15 -10z"/>
<path d="M7085 1720 c4 -6 11 -8 16 -5 14 9 11 15 -7 15 -8 0 -12 -5 -9 -10z"/>
<path d="M6083 1083 c-7 -2 -13 -11 -13 -19 0 -12 4 -12 20 -4 32 17 26 37 -7
23z"/>
<path d="M6297 1009 c7 -7 15 -10 18 -7 3 3 -2 9 -12 12 -14 6 -15 5 -6 -5z"/>
<path d="M6450 964 c0 -17 22 -14 28 4 2 7 -3 12 -12 12 -9 0 -16 -7 -16 -16z"/>
<path d="M5676 1825 c-9 -26 -7 -32 5 -12 6 10 9 21 6 23 -2 3 -7 -2 -11 -11z"/>
<path d="M6970 1639 c-14 -3 34 -8 105 -10 129 -4 143 -3 134 6 -8 8 -212 12
-239 4z"/>
<path d="M7235 1620 c11 -5 27 -9 35 -9 13 -1 13 0 0 9 -8 5 -24 9 -35 9 l-20
0 20 -9z"/>
<path d="M7325 1577 c23 -20 36 -38 31 -45 -10 -16 -43 -15 -48 1 -6 15 -387
27 -431 13 -33 -10 -61 8 -54 36 3 10 1 16 -4 12 -21 -12 -7 -45 29 -69 32
-21 55 -26 172 -35 200 -15 340 -1 354 35 9 24 -3 43 -40 65 -50 29 -53 25 -9
-13z"/>
<path d="M6835 1490 c3 -5 11 -10 16 -10 6 0 7 5 4 10 -3 6 -11 10 -16 10 -6
0 -7 -4 -4 -10z"/>
<path d="M6888 1473 c7 -3 16 -2 19 1 4 3 -2 6 -13 5 -11 0 -14 -3 -6 -6z"/>
<path d="M6928 1463 c6 -2 18 -2 25 0 6 3 1 5 -13 5 -14 0 -19 -2 -12 -5z"/>
<path d="M6998 1453 c7 -3 16 -2 19 1 4 3 -2 6 -13 5 -11 0 -14 -3 -6 -6z"/>
<path d="M7128 1303 c12 -2 30 -2 40 0 9 3 -1 5 -23 4 -22 0 -30 -2 -17 -4z"/>
<path d="M7086 1258 c-13 -46 -29 -289 -20 -298 5 -5 21 -12 37 -15 24 -6 29
-3 41 26 19 47 48 291 36 303 -6 6 -10 6 -10 1 1 -28 -44 -301 -50 -308 -3 -4
-14 -5 -23 -1 -20 7 -22 55 -7 204 11 100 9 134 -4 88z"/>
<path d="M5635 1504 c22 -9 54 -18 70 -20 17 -2 21 -1 10 2 -11 3 -34 12 -52
20 -17 8 -39 14 -50 14 -10 -1 0 -8 22 -16z"/>
<path d="M5763 1430 c14 -11 31 -20 39 -20 7 0 -2 9 -20 20 -42 26 -52 26 -19
0z"/>
<path d="M5688 1433 c6 -2 18 -2 25 0 6 3 1 5 -13 5 -14 0 -19 -2 -12 -5z"/>
<path d="M5828 1423 c7 -3 16 -2 19 1 4 3 -2 6 -13 5 -11 0 -14 -3 -6 -6z"/>
<path d="M5740 1386 c14 -7 36 -16 50 -20 19 -5 16 -2 -10 13 -19 11 -42 20
-50 20 -8 0 -4 -6 10 -13z"/>
<path d="M630 4836 c-18 -16 -84 -30 -75 -16 3 6 2 10 -4 10 -15 0 -21 -14
-12 -29 6 -9 14 -10 27 -4 11 5 30 9 44 9 19 -1 25 -6 24 -23 0 -12 4 -19 9
-16 5 3 6 16 3 28 -3 13 -2 27 4 30 12 7 13 25 2 25 -4 0 -14 -6 -22 -14z"/>
<path d="M557 4723 c-10 -9 -9 -23 2 -23 5 0 11 7 15 15 5 15 -5 20 -17 8z"/>
<path d="M595 4690 c3 -5 8 -10 11 -10 2 0 4 5 4 10 0 6 -5 10 -11 10 -5 0 -7
-4 -4 -10z"/>
<path d="M2951 4538 c2 -87 2 -89 9 -38 12 80 11 130 0 130 -6 0 -9 -37 -9
-92z"/>
<path d="M2920 4505 c0 -65 2 -116 5 -114 7 8 10 218 2 225 -4 4 -7 -46 -7
-111z"/>
<path d="M545 4600 c-3 -5 -2 -10 4 -10 5 0 13 5 16 10 3 6 2 10 -4 10 -5 0
-13 -4 -16 -10z"/>
<path d="M2350 4484 c-18 -10 -40 -13 -77 -9 -36 5 -53 2 -59 -7 -5 -7 -11
-96 -15 -198 -3 -102 -10 -195 -14 -206 -7 -21 -3 -22 89 -29 121 -9 232 -3
248 14 11 10 7 11 -17 4 -32 -9 -140 -10 -243 -3 -61 4 -63 5 -58 30 15 73 19
111 25 236 l6 136 58 2 c40 1 57 -3 57 -11 0 -17 20 -16 39 1 9 8 41 16 71 18
l55 3 7 -105 c15 -215 25 -314 28 -275 2 22 2 47 1 55 -1 8 -5 89 -9 180 l-7
165 -60 2 c-33 1 -69 4 -80 6 -11 3 -31 -1 -45 -9z"/>
<path d="M2949 4400 c-6 -45 -4 -58 7 -48 3 3 4 26 2 49 l-3 44 -6 -45z"/>
<path d="M2656 4353 c-3 -21 -8 -317 -11 -658 -4 -341 -8 -646 -10 -677 -3
-31 0 -60 5 -63 5 -3 9 65 10 162 1 93 3 211 4 263 1 52 3 195 4 317 2 193 4
222 17 217 12 -5 15 1 14 27 -1 32 -2 32 -9 9 -8 -25 -8 -25 -10 5 -2 17 -2
121 0 233 2 195 -2 244 -14 165z"/>
<path d="M2415 4348 c-4 -10 -4 -26 0 -35 8 -17 8 -17 12 0 3 9 3 25 0 35 -4
16 -4 16 -12 0z"/>
<path d="M2335 4330 c-19 -7 -19 -8 -2 -15 10 -4 23 -3 29 3 14 14 -3 21 -27
12z"/>
<path d="M2912 4295 c0 -16 2 -22 5 -12 2 9 2 23 0 30 -3 6 -5 -1 -5 -18z"/>
<path d="M2941 4274 c0 -11 3 -14 6 -6 3 7 2 16 -1 19 -3 4 -6 -2 -5 -13z"/>
<path d="M2681 4244 c0 -11 3 -14 6 -6 3 7 2 16 -1 19 -3 4 -6 -2 -5 -13z"/>
<path d="M2355 4220 c-3 -5 -1 -10 4 -10 6 0 11 5 11 10 0 6 -2 10 -4 10 -3 0
-8 -4 -11 -10z"/>
<path d="M2944 4145 c0 -49 1 -71 3 -48 2 23 2 64 0 90 -2 26 -3 8 -3 -42z"/>
<path d="M2909 4158 c-1 -7 -3 -23 -4 -35 -1 -13 2 -23 6 -23 5 0 9 16 9 35 0
33 -8 50 -11 23z"/>
<path d="M1699 4138 c-6 -21 -5 -39 2 -44 5 -3 7 -9 4 -14 -3 -4 4 -6 15 -3
23 6 27 23 5 23 -25 0 -17 18 13 28 l27 10 -32 1 c-18 1 -33 0 -34 -1z"/>
<path d="M2682 4090 c0 -14 2 -19 5 -12 2 6 2 18 0 25 -3 6 -5 1 -5 -13z"/>
<path d="M2898 3903 c-4 -171 -3 -191 6 -182 7 7 11 359 4 359 -3 0 -8 -80
-10 -177z"/>
<path d="M1630 4040 c0 -5 4 -10 9 -10 6 0 13 5 16 10 3 6 -1 10 -9 10 -9 0
-16 -4 -16 -10z"/>
<path d="M820 4029 c-14 -6 -72 -21 -130 -34 -58 -13 -140 -35 -184 -49 -87
-29 -106 -31 -106 -15 0 17 -111 5 -159 -18 -27 -12 -39 -23 -36 -34 4 -12
-15 -20 -92 -39 -54 -13 -90 -26 -80 -28 10 -2 50 4 88 13 55 14 72 15 84 5
38 -31 191 8 202 51 6 21 65 41 283 95 162 41 164 41 154 12 -4 -13 -8 -178
-8 -367 l-1 -344 -75 -29 c-191 -75 -383 -145 -603 -221 -65 -22 -114 -44
-109 -49 8 -8 177 46 397 127 55 20 125 46 155 57 114 40 235 90 245 99 6 6
10 146 10 377 1 202 3 373 5 381 7 18 -9 22 -40 10z m-440 -108 c0 -5 -6 -12
-12 -15 -10 -5 -10 -7 0 -12 20 -9 14 -21 -22 -43 -39 -24 -106 -29 -106 -7 0
8 -3 21 -6 30 -5 12 6 21 37 36 46 20 109 27 109 11z"/>
<path d="M1696 4018 c8 -29 10 -31 23 -24 7 5 7 13 -2 26 -16 27 -30 25 -21
-2z"/>
<path d="M2937 4013 c-11 -10 -8 -43 3 -43 6 0 10 11 10 25 0 26 -2 29 -13 18z"/>
<path d="M2930 3825 c-1 -66 -3 -137 -6 -157 -2 -20 0 -39 6 -43 6 -4 10 31
11 102 1 59 2 122 4 138 1 17 -2 41 -6 55 -4 15 -8 -25 -9 -95z"/>
<path d="M2452 3860 c0 -14 2 -19 5 -12 2 6 2 18 0 25 -3 6 -5 1 -5 -13z"/>
<path d="M2673 3745 c0 -22 2 -30 4 -17 2 12 2 30 0 40 -3 9 -5 -1 -4 -23z"/>
<path d="M2452 3750 c0 -14 2 -19 5 -12 2 6 2 18 0 25 -3 6 -5 1 -5 -13z"/>
<path d="M2890 3659 c0 -31 -2 -92 -5 -135 -3 -43 -3 -74 0 -69 10 21 23 240
14 250 -5 5 -9 -14 -9 -46z"/>
<path d="M2673 3665 c0 -22 2 -30 4 -17 2 12 2 30 0 40 -3 9 -5 -1 -4 -23z"/>
<path d="M2451 3620 l1 -55 11 43 c7 31 7 46 -1 54 -9 9 -12 -1 -11 -42z"/>
<path d="M350 3629 c0 -5 5 -7 10 -4 6 3 10 8 10 11 0 2 -4 4 -10 4 -5 0 -10
-5 -10 -11z"/>
<path d="M1648 3615 c-16 -14 -28 -30 -28 -34 0 -5 -20 -6 -44 -4 -43 5 -96
-12 -80 -26 5 -5 30 -14 57 -21 26 -7 47 -16 47 -19 0 -4 -14 -15 -30 -24 -27
-17 -32 -17 -46 -3 -20 20 -68 21 -84 0 -12 -13 -16 -11 -33 16 -15 24 -26 30
-46 28 -27 -3 -30 -13 -17 -61 5 -23 4 -24 -50 -23 -43 0 -59 -4 -69 -18 -25
-33 -8 -46 62 -46 l66 0 -27 -27 c-24 -23 -27 -33 -24 -82 4 -69 24 -75 52
-17 19 39 20 40 29 15 19 -49 24 -54 63 -54 33 0 41 -4 52 -28 13 -27 12 -30
-29 -68 -23 -21 -44 -38 -46 -36 -1 2 8 18 22 37 13 18 22 37 19 41 -10 17
-52 9 -75 -15 l-23 -24 -30 24 c-47 41 -100 18 -58 -24 20 -20 19 -20 -17 -26
-20 -3 -42 -10 -50 -15 -19 -13 -6 -41 19 -41 19 0 21 -4 15 -29 -8 -39 7 -46
36 -15 13 14 32 30 42 36 16 8 18 6 11 -26 -4 -26 -1 -43 10 -61 18 -27 8 -32
-24 -13 -30 19 -44 -2 -42 -68 1 -46 -1 -54 -12 -45 -7 6 -21 9 -30 5 -18 -7
-21 7 -5 23 18 18 7 59 -15 55 -24 -4 -68 -33 -62 -40 3 -3 12 1 21 8 12 10
15 10 15 -2 0 -11 -70 -51 -130 -73 -3 -1 -13 -5 -23 -10 -10 -4 -20 -5 -23
-3 -2 3 20 17 50 31 30 14 57 31 61 37 4 6 -25 -5 -64 -25 -39 -19 -71 -42
-71 -50 0 -8 -21 -24 -47 -36 -135 -62 -176 -79 -179 -76 -2 2 35 23 82 46 47
24 83 45 80 48 -2 3 -42 -14 -88 -37 -46 -23 -114 -53 -151 -67 -38 -13 -95
-40 -127 -59 -32 -19 -61 -34 -64 -34 -3 0 -54 -22 -112 -50 -58 -27 -108 -50
-110 -50 -2 0 -27 -11 -56 -24 -29 -14 -74 -34 -101 -45 -26 -11 -46 -25 -45
-32 2 -6 -4 -14 -12 -16 -13 -4 -13 -3 0 6 10 7 11 11 3 11 -21 0 -15 26 10
44 l22 16 -27 -6 c-16 -3 -28 -4 -28 0 0 10 64 40 559 253 10 5 13 2 8 -10 -7
-18 8 -24 18 -7 3 6 15 10 27 10 13 0 18 5 15 14 -4 9 25 26 91 56 54 24 149
68 212 98 63 30 127 55 142 56 16 0 28 4 28 7 0 14 -14 17 -37 8 -17 -6 -30
-6 -39 1 -9 8 -18 8 -32 1 -13 -7 -36 -8 -65 -2 -54 10 -54 10 -292 -99 -99
-45 -236 -107 -305 -137 -69 -30 -167 -75 -219 -99 -65 -31 -97 -41 -101 -33
-5 6 -17 8 -29 4 l-21 -6 0 -575 c1 -569 1 -574 20 -564 11 6 21 7 22 3 0 -4
2 -12 3 -18 2 -5 3 -41 4 -79 l1 -68 28 6 c24 6 25 5 7 -6 -11 -6 -23 -16 -27
-22 -12 -18 -9 -38 5 -33 6 2 11 9 10 15 -1 5 3 9 10 9 26 -3 107 45 107 63 0
23 39 50 102 74 26 10 50 22 53 27 8 12 35 12 35 -1 0 -5 -9 -10 -20 -10 -11
0 -20 -4 -20 -10 0 -5 -7 -10 -15 -10 -8 0 -13 -6 -11 -12 1 -7 1 -10 -1 -5
-8 13 -29 8 -56 -13 -14 -11 -32 -20 -41 -20 -10 0 -13 -6 -10 -15 8 -21 15
-19 47 11 32 29 32 29 41 -8 5 -22 3 -25 -14 -21 -17 5 -18 3 -7 -21 7 -14 15
-26 20 -26 4 0 7 -4 7 -9 0 -9 -38 -24 -53 -22 -4 1 -10 -6 -13 -14 -4 -10
-14 -13 -32 -8 -17 4 -23 2 -18 -6 4 -6 1 -11 -8 -11 -8 0 -18 -9 -21 -20 -7
-22 -16 -25 -31 -10 -8 8 -19 -2 -38 -31 -15 -22 -30 -38 -33 -35 -3 3 0 12 6
20 15 18 -2 17 -36 -2 l-23 -13 0 -519 0 -520 866 0 867 0 -6 29 c-4 16 -2 43
3 60 5 19 5 29 -1 26 -5 -4 -9 1 -9 10 0 9 5 13 10 10 6 -3 10 1 10 10 0 9 -4
14 -9 11 -12 -8 -29 96 -36 219 l-7 100 31 13 c26 11 39 10 99 -7 38 -12 80
-21 93 -21 41 0 111 -26 121 -44 5 -10 18 -50 28 -89 10 -40 28 -105 40 -145
12 -41 19 -80 16 -88 -3 -8 -1 -14 4 -14 6 0 10 -10 10 -21 0 -18 -3 -19 -14
-9 -13 10 -13 8 -3 -14 8 -16 14 -21 19 -13 5 8 8 6 8 -5 0 -16 12 -18 119
-18 l118 0 7 37 c8 49 6 77 -3 38 -5 -25 -11 -9 -34 90 -15 66 -32 136 -37
156 -16 57 -13 92 6 85 9 -3 20 -6 25 -6 5 0 8 -6 6 -12 -1 -10 18 -13 68 -14
39 0 108 -10 155 -22 106 -26 135 -31 235 -37 44 -3 118 -9 165 -15 47 -5 91
-10 98 -10 6 0 12 -7 12 -15 0 -13 4 -14 21 -4 22 11 133 4 125 -9 -2 -4 39
-7 93 -8 125 -1 224 -13 196 -25 -14 -5 -16 -8 -5 -9 8 -2 19 -2 23 -1 4 1 1
-12 -8 -29 -9 -16 -22 -30 -30 -30 -8 0 -15 -7 -15 -16 0 -10 -6 -14 -14 -11
-9 4 -12 0 -9 -13 3 -10 0 -21 -6 -24 -6 -4 -11 -15 -11 -24 0 -15 2 -15 10
-2 7 10 10 11 10 2 0 -7 -7 -15 -15 -18 -8 -4 -12 -11 -9 -16 4 -6 -1 -8 -14
-4 -23 8 -39 -8 -21 -20 8 -5 9 -3 4 6 -5 8 -3 11 6 8 8 -3 13 -11 12 -17 -2
-8 34 -11 120 -11 l122 0 19 35 c11 19 26 35 34 35 8 0 12 6 9 15 -4 8 -2 17
2 20 11 6 23 -23 15 -36 -3 -5 -1 -9 4 -9 19 0 20 13 5 37 -14 21 -14 26 -2
34 8 5 10 9 4 9 -5 0 -2 5 8 11 9 5 17 17 17 25 0 8 4 13 9 10 13 -8 42 4 35
15 -3 5 11 9 30 9 38 0 57 -16 29 -23 -10 -2 18 -2 61 0 73 4 78 3 63 -12 -9
-9 -20 -14 -24 -12 -5 3 -16 -6 -26 -19 -18 -24 -18 -24 5 -33 17 -7 19 -10 6
-10 -20 -1 -24 -16 -8 -26 16 -10 1 -25 -26 -25 -28 0 -33 24 -6 39 13 8 15
14 6 28 -9 14 -8 22 4 33 13 11 13 15 2 18 -8 3 -16 0 -18 -7 -2 -7 -17 -10
-40 -7 -21 3 -29 3 -19 0 15 -5 13 -9 -15 -22 -27 -14 -32 -22 -30 -44 1 -14
-1 -29 -6 -32 -19 -11 -92 -16 -92 -5 0 5 -5 7 -10 4 -6 -4 -4 -12 6 -22 13
-14 17 -14 26 -2 7 10 8 9 3 -7 -5 -21 -3 -21 174 -22 161 -2 180 0 174 14 -5
13 -8 13 -15 2 -7 -9 -8 -8 -4 5 3 10 6 26 6 34 0 11 5 9 18 -7 17 -21 50 -21
37 0 -3 5 -1 11 5 15 5 3 10 2 10 -4 0 -5 3 -16 6 -25 4 -11 0 -16 -14 -16
-12 0 -24 -4 -27 -10 -4 -7 74 -10 226 -10 l232 0 -7 38 c-3 20 -11 73 -17
116 -5 44 -13 84 -16 90 -4 6 -8 20 -9 31 -5 44 -26 106 -37 110 -59 22 -209
38 -402 42 -146 3 -234 9 -261 18 -41 14 -124 10 -124 -6 0 -14 -114 -10 -156
5 -45 16 -104 24 -224 31 -47 3 -195 21 -328 40 -134 20 -258 37 -275 40 -61
8 -123 15 -177 21 -30 3 -86 12 -125 20 -38 8 -85 14 -104 14 -28 0 -32 3 -26
18 4 9 16 49 25 89 20 80 58 193 101 298 28 69 70 207 84 275 6 32 46 151 77
228 7 17 16 32 20 32 4 0 8 7 8 15 0 27 -18 16 -33 -22 -16 -37 -16 -37 -10
47 3 47 11 106 18 133 7 26 9 47 5 47 -4 0 -11 -17 -15 -37 -5 -26 -26 -57
-72 -107 -36 -39 -76 -87 -88 -106 -50 -77 -55 -79 -185 -64 -63 7 -149 13
-190 14 -41 1 -115 7 -165 14 -87 12 -89 13 -55 23 l35 11 -45 1 c-25 1 -97
-6 -159 -15 -62 -8 -115 -13 -118 -10 -3 3 -28 63 -54 133 -48 127 -71 214
-84 326 -7 61 -11 57 50 62 11 1 34 3 50 4 26 2 27 3 10 10 -11 5 -46 6 -78 3
-44 -3 -60 -9 -68 -25 -8 -13 -8 -22 -1 -26 6 -3 13 -18 17 -32 5 -21 2 -27
-14 -32 -18 -4 -20 -13 -19 -117 1 -131 -6 -144 -74 -134 -24 4 -38 3 -38 -4
0 -20 -35 -18 -47 3 -11 19 -12 18 -13 -12 0 -36 -17 -45 -81 -40 -30 2 -35 5
-31 22 5 19 5 19 -11 3 -10 -9 -16 -23 -15 -30 2 -7 -7 -14 -20 -16 -20 -3
-22 0 -16 22 5 22 3 24 -16 19 -17 -5 -20 -11 -15 -30 5 -22 4 -22 -15 -11
-18 11 -23 10 -34 -4 -7 -10 -19 -18 -26 -18 -13 0 -80 -28 -122 -51 -23 -12
-30 -11 -26 2 2 6 6 9 10 7 9 -5 48 34 48 48 0 7 -8 17 -18 23 -16 9 -16 11 3
25 24 19 62 21 68 4 2 -7 8 -10 12 -6 13 12 -5 28 -33 29 -27 0 -27 0 -4 11
12 6 22 15 22 20 0 11 -48 10 -55 -2 -3 -5 -13 -10 -22 -10 -9 0 -25 -8 -36
-17 -18 -17 -19 -17 -16 7 3 17 9 24 21 22 9 -1 19 2 23 8 3 5 15 10 26 10 22
0 22 0 8 37 l-10 28 -19 -25 c-10 -14 -22 -21 -26 -18 -16 16 68 78 164 122
17 8 37 27 42 41 5 14 14 24 19 21 5 -3 14 1 21 9 6 8 28 19 48 26 47 15 112
56 112 70 0 5 5 7 10 4 6 -3 10 -1 10 5 0 6 5 8 10 5 6 -3 10 -1 10 6 0 7 3 9
7 6 3 -4 12 1 19 11 9 13 9 19 1 25 -8 6 -7 7 3 4 21 -6 72 21 64 34 -3 6 -13
8 -21 5 -8 -3 -11 -1 -8 4 3 6 18 7 33 4 22 -5 25 -4 15 6 -9 10 -7 17 13 32
17 14 23 26 19 39 -4 11 -2 19 4 19 6 0 11 -8 11 -17 0 -12 3 -14 8 -6 4 6 20
15 36 19 l30 7 -22 -23 c-20 -21 -20 -25 -6 -33 16 -9 43 15 44 41 0 17 20 15
20 -3 0 -8 5 -15 10 -15 15 0 12 40 -2 41 -7 1 -30 2 -51 3 -20 2 -40 6 -45
11 -4 4 19 5 51 3 31 -3 57 -1 57 3 0 3 24 10 54 13 65 9 87 29 93 90 3 25 10
43 15 40 11 -7 0 -73 -18 -101 -13 -21 -13 -23 5 -23 10 0 21 9 24 20 4 15 14
20 36 20 17 0 31 5 31 10 0 6 16 10 35 10 19 0 35 4 35 9 0 5 14 11 31 15 17
3 28 9 25 14 -3 4 22 6 54 4 48 -4 61 -1 66 12 8 20 24 21 24 2 0 -9 7 -12 20
-9 11 3 20 9 20 14 0 17 30 9 30 -8 1 -17 1 -17 14 0 7 9 25 17 39 17 36 0 45
20 10 21 -15 0 -66 2 -113 4 -213 9 -353 7 -361 -6 -19 -31 -24 17 -24 239 -1
159 -5 246 -13 265 -13 29 -27 35 -35 13 -3 -7 -15 -16 -26 -19 -18 -4 -20 -2
-15 21 4 15 13 42 22 61 l15 33 19 -36 c28 -55 55 -46 49 17 -3 24 8 21 31 -8
40 -51 75 -17 37 36 l-22 31 24 -12 c13 -7 36 -21 51 -32 34 -23 44 -9 23 32
-23 44 -74 90 -101 90 -13 0 -24 5 -24 11 0 10 59 39 80 39 18 0 10 -22 -10
-27 -26 -7 -26 -23 1 -23 27 0 59 -18 59 -33 0 -8 -4 -7 -10 3 -5 8 -12 11
-16 7 -8 -7 23 -47 37 -47 4 0 20 -5 35 -10 l27 -10 -26 -23 c-31 -27 -43 -68
-27 -96 15 -29 25 -26 48 10 l19 31 7 -36 c7 -35 45 -76 72 -76 15 0 11 29
-12 108 -12 42 -12 43 5 28 10 -9 22 -16 28 -16 6 0 20 -12 31 -27 33 -45 38
-5 8 56 -19 37 -33 52 -54 57 -15 3 -31 7 -37 8 -5 2 14 20 43 40 28 21 49 42
46 47 -7 12 -61 12 -84 -1 -21 -11 -35 1 -45 43 -8 32 4 35 40 11 26 -17 55
-13 55 6 0 7 -13 25 -29 41 -22 21 -39 29 -66 29 l-37 0 26 44 c33 57 33 66
-3 66 -33 0 -83 -45 -79 -70 4 -22 -1 -24 -35 -11 -15 6 -31 10 -35 9 -4 -1
-16 1 -27 5 -17 6 -20 14 -17 44 l5 38 33 -39 c18 -21 38 -35 43 -31 18 11 12
71 -9 98 l-21 26 31 -11 c38 -13 47 -6 34 30 -7 20 -19 29 -47 36 -37 10 -38
11 -32 45 4 20 7 40 8 46 4 21 -39 14 -65 -10z m32 -28 c0 -7 -7 -22 -15 -33
-14 -18 -14 -18 -15 7 0 14 3 29 7 32 11 11 23 8 23 -6z m-75 -37 c8 -13 -5
-13 -25 0 -13 8 -13 10 2 10 9 0 20 -4 23 -10z m125 -40 c0 -5 -12 -10 -26
-10 -14 0 -23 4 -19 10 3 6 15 10 26 10 10 0 19 -4 19 -10z m-352 -35 c-3 -3
-9 2 -12 12 -6 14 -5 15 5 6 7 -7 10 -15 7 -18z m102 -24 c-39 -21 -49 -19
-30 4 7 8 24 15 39 15 25 0 24 -1 -9 -19z m238 -19 c20 -31 1 -27 -22 5 -12
16 -14 24 -6 21 7 -2 20 -14 28 -26z m-198 -17 c0 -27 18 -33 38 -13 19 19 21
7 15 -75 l-6 -78 -30 3 c-23 2 -36 12 -51 38 l-20 35 33 -27 c44 -38 55 -36
48 8 -8 49 -32 73 -80 81 l-40 6 39 23 c49 30 54 30 54 -1z m-217 -2 c-7 -2
-19 -2 -25 0 -7 3 -2 5 12 5 14 0 19 -2 13 -5z m62 -82 c-20 -39 -40 -52 -30
-20 7 20 31 47 43 49 1 0 -4 -13 -13 -29z m465 15 c0 -8 -4 -18 -10 -21 -5 -3
-10 3 -10 14 0 12 5 21 10 21 6 0 10 -6 10 -14z m-410 -58 c0 -23 -3 -29 -11
-21 -6 6 -8 20 -4 32 9 30 15 26 15 -11z m215 22 c3 -6 27 -15 53 -22 l46 -11
-44 -19 c-25 -11 -52 -26 -61 -34 -14 -13 -16 -9 -15 41 1 52 8 67 21 45z
m-171 -35 c3 -8 1 -15 -4 -15 -6 0 -10 7 -10 15 0 8 2 15 4 15 2 0 6 -7 10
-15z m436 -5 c0 -5 -9 -10 -20 -10 -11 0 -20 5 -20 10 0 6 9 10 20 10 11 0 20
-4 20 -10z m-140 -20 c-6 -12 -16 -17 -27 -13 -14 6 -14 8 3 20 26 19 36 16
24 -7z m22 -32 c-8 -8 -9 -4 -5 13 4 13 8 18 11 10 2 -7 -1 -18 -6 -23z m-207
-14 c16 -25 16 -25 -5 -14 -11 6 -17 16 -14 22 4 7 3 8 -4 4 -7 -4 -20 -2 -29
3 -16 9 -14 10 8 11 18 0 32 -9 44 -26z m95 7 c0 -5 -7 -12 -16 -15 -14 -5
-15 -4 -4 9 14 17 20 19 20 6z m199 -95 c-5 -6 -17 -2 -29 9 -17 15 -23 16
-29 6 -14 -23 -25 8 -12 33 l12 22 34 -30 c19 -18 29 -35 24 -40z m-309 48 c0
-2 -7 -4 -15 -4 -8 0 -15 4 -15 10 0 5 7 7 15 4 8 -4 15 -8 15 -10z m390 -12
c0 -9 -55 -52 -66 -52 -4 0 5 14 21 30 28 30 45 38 45 22z m-540 -33 c-7 -11
-14 -18 -17 -15 -3 3 0 12 7 21 18 21 23 19 10 -6z m145 12 c-6 -5 -21 -12
-35 -15 l-25 -7 25 15 c28 17 50 21 35 7z m145 -14 c8 -7 24 -23 35 -37 19
-24 19 -24 -17 3 -20 15 -41 27 -47 27 -5 0 -13 5 -16 10 -9 14 27 12 45 -3z
m-355 -7 c3 -6 -1 -7 -9 -4 -18 7 -21 14 -7 14 6 0 13 -4 16 -10z m176 -44
c-26 -27 -61 -26 -39 1 13 16 50 33 57 27 3 -2 -6 -15 -18 -28z m89 9 c0 -8
-4 -15 -10 -15 -5 0 -10 7 -10 15 0 8 5 15 10 15 6 0 10 -7 10 -15z m70 -49
c0 -5 -7 -1 -15 10 -8 10 -14 24 -14 29 0 6 6 1 14 -9 8 -11 15 -24 15 -30z
m286 26 c11 -7 34 -45 34 -56 0 -9 -79 48 -80 57 0 9 32 9 46 -1z m-93 -21
c-6 -23 -40 -57 -49 -48 -16 16 9 48 53 66 0 1 -1 -8 -4 -18z m45 -81 c6 -24
9 -46 7 -48 -8 -8 -35 58 -35 85 0 37 15 18 28 -37z m-494 -12 c6 -25 4 -28
-18 -28 -26 0 -43 15 -27 24 4 3 12 20 15 38 7 29 9 30 15 13 5 -11 11 -32 15
-47z m-216 -104 c-3 -17 -409 -228 -460 -240 -22 -5 -28 -2 -28 10 0 10 26 27
68 47 136 63 298 140 352 168 66 34 72 36 68 15z m-278 -14 c-8 -5 -19 -10
-25 -10 -5 0 -3 5 5 10 8 5 20 10 25 10 6 0 3 -5 -5 -10z m745 -420 c3 -5 -1
-10 -9 -10 -9 0 -16 5 -16 10 0 6 4 10 9 10 6 0 13 -4 16 -10z m-325 -151 c0
-5 -4 -9 -8 -9 -5 0 -9 7 -9 15 0 8 4 12 9 9 4 -3 8 -9 8 -15z m-228 -226 c-6
-2 -10 -9 -7 -14 4 -5 -1 -6 -10 -2 -13 5 -14 7 -3 14 7 5 18 8 23 8 6 0 4 -3
-3 -6z m328 -415 c13 -35 25 -68 27 -75 3 -7 -4 -10 -19 -8 -34 5 -141 35
-148 41 -5 6 99 104 111 104 3 0 17 -28 29 -62z m-185 42 c-3 -5 -11 -10 -16
-10 -6 0 -7 5 -4 10 3 6 11 10 16 10 6 0 7 -4 4 -10z m1270 -90 c-14 -107 -65
-275 -75 -246 -3 10 -10 17 -15 16 -5 -1 -12 7 -16 17 -6 14 -8 11 -8 -12 -1
-38 -17 -55 -50 -54 -26 0 -26 0 -3 9 25 11 30 30 7 30 -8 0 -15 -4 -15 -10 0
-14 -16 -12 -32 4 -10 9 -20 11 -31 5 -9 -6 -18 -6 -21 0 -3 5 2 12 12 16 16
6 16 7 -1 16 -9 6 -15 14 -12 20 13 19 -24 11 -74 -18 -2 -1 5 -10 15 -20 11
-10 18 -17 16 -16 -3 1 -13 -2 -23 -8 -11 -5 -19 -6 -18 -2 4 24 -4 33 -27 33
-14 0 -23 4 -19 10 4 6 10 8 15 5 4 -3 13 2 20 10 7 8 19 15 27 15 8 0 11 5 8
10 -4 6 -11 8 -16 4 -13 -7 -119 15 -119 26 0 5 -8 11 -17 13 -24 6 138 -1
204 -9 29 -3 63 -4 76 0 21 5 72 66 87 104 6 15 112 133 116 129 1 -1 -4 -45
-11 -97z m-1195 87 c0 -2 -10 -12 -22 -23 l-23 -19 19 23 c18 21 26 27 26 19z
m-110 -17 c0 -5 -5 -10 -11 -10 -5 0 -7 5 -4 10 3 6 8 10 11 10 2 0 4 -4 4
-10z m-50 -24 c0 -3 -4 -8 -10 -11 -5 -3 -10 -1 -10 4 0 6 5 11 10 11 6 0 10
-2 10 -4z m106 -8 c4 -6 3 -8 -4 -4 -16 9 -26 -32 -12 -49 9 -11 9 -15 1 -15
-6 0 -14 7 -17 15 -4 8 -12 15 -20 15 -8 0 -14 5 -14 11 0 5 5 7 11 4 6 -4 17
2 25 14 17 24 20 25 30 9z m-136 -8 c0 -11 -33 -30 -52 -29 -7 0 -3 4 10 9 12
5 22 14 22 20 0 5 5 10 10 10 6 0 10 -4 10 -10z m-550 -23 c-14 -8 -27 -12
-30 -10 -7 6 23 23 40 23 8 0 4 -6 -10 -13z m640 -27 c0 -5 -4 -10 -10 -10 -5
0 -10 5 -10 10 0 6 5 10 10 10 6 0 10 -4 10 -10z m-733 -25 c-4 -8 -15 -15
-26 -15 -11 0 -21 -5 -23 -12 -3 -7 -10 -8 -17 -4 -9 6 -1 15 26 31 40 25 49
25 40 0z m494 18 c-11 -5 -11 -7 0 -15 10 -7 5 -8 -15 -3 -23 5 -27 3 -22 -10
3 -9 2 -13 -4 -10 -17 10 -11 25 13 35 12 5 27 9 32 9 6 -1 4 -3 -4 -6z m-284
-35 c-3 -8 -6 -5 -6 6 -1 11 2 17 5 13 3 -3 4 -12 1 -19z m426 15 c-7 -2 -19
-2 -25 0 -7 3 -2 5 12 5 14 0 19 -2 13 -5z m-46 -35 c-3 -7 -5 -2 -5 12 0 14
2 19 5 13 2 -7 2 -19 0 -25z m352 16 c2 -2 -3 -4 -12 -4 -8 0 -22 -2 -30 -5
-8 -4 -14 0 -14 9 0 12 7 14 26 9 14 -3 28 -7 30 -9z m-835 -51 c-16 -13 -38
-23 -48 -23 -16 0 -17 -3 -8 -12 7 -7 12 -19 11 -27 0 -10 -2 -11 -5 -4 -8 18
-34 4 -27 -15 5 -12 2 -14 -11 -9 -23 9 -49 -17 -41 -42 3 -11 0 -23 -6 -27
-8 -4 -9 -3 -5 5 5 7 -4 15 -23 22 -33 12 -37 20 -20 50 9 18 7 19 -16 13 -23
-6 -24 -4 -16 17 4 13 16 24 25 24 9 0 20 6 25 13 4 7 29 15 55 17 26 3 55 9
66 15 10 5 28 10 39 10 13 0 21 7 22 18 1 14 2 14 6 -3 4 -13 -4 -26 -23 -42z
m206 53 c0 -3 -4 -8 -10 -11 -5 -3 -10 -1 -10 4 0 6 5 11 10 11 6 0 10 -2 10
-4z m330 -11 c0 -8 -4 -15 -9 -15 -5 0 -14 7 -21 15 -10 13 -9 15 9 15 12 0
21 -6 21 -15z m115 5 c-3 -5 -10 -10 -16 -10 -5 0 -9 5 -9 10 0 6 7 10 16 10
8 0 12 -4 9 -10z m-855 -21 c0 -5 -7 -9 -15 -9 -15 0 -20 12 -9 23 8 8 24 -1
24 -14z m780 11 c0 -5 -7 -10 -16 -10 -8 0 -12 5 -9 10 3 6 10 10 16 10 5 0 9
-4 9 -10z m-110 -14 c0 -8 10 -17 23 -19 15 -3 12 -5 -13 -6 -19 -2 -45 -4
-57 -5 -12 -1 -20 1 -17 6 3 4 14 8 25 8 10 0 19 7 19 15 0 8 5 15 10 15 6 0
10 -6 10 -14z m240 0 c0 -7 -12 -13 -29 -13 -21 0 -26 3 -18 12 15 15 47 16
47 1z m383 -1 c-1 -5 -7 -11 -15 -13 -9 -2 -8 0 2 7 12 9 11 11 -7 11 -13 0
-22 -5 -20 -12 1 -9 -16 -13 -61 -13 -66 0 -84 16 -30 26 48 10 133 6 131 -6z
m-296 -1 c-3 -3 -12 -4 -19 -1 -8 3 -5 6 6 6 11 1 17 -2 13 -5z m397 -3 c14
-5 16 -10 7 -15 -6 -4 -17 -3 -24 2 -7 6 -23 12 -37 15 -22 4 -22 4 5 5 17 0
39 -3 49 -7z m-351 -7 c11 -11 -3 -24 -18 -18 -8 4 -12 10 -9 15 6 11 18 12
27 3z m407 2 c0 -11 -19 -15 -25 -6 -3 5 1 10 9 10 9 0 16 -2 16 -4z m-872
-13 c-10 -2 -18 -9 -18 -14 0 -6 -5 -7 -11 -3 -14 8 8 24 31 23 11 -1 10 -3
-2 -6z m179 1 c-3 -3 -12 -4 -19 -1 -8 3 -5 6 6 6 11 1 17 -2 13 -5z m336 -15
l22 -21 -27 13 c-16 7 -28 16 -28 21 0 13 9 10 33 -13z m243 12 c-7 -11 -46
-21 -46 -12 0 13 13 21 32 21 11 0 17 -4 14 -9z m224 5 c0 -2 -13 -9 -30 -15
-24 -8 -30 -7 -30 5 0 9 10 14 30 14 17 0 30 -2 30 -4z m-1147 -27 c-18 -11
-38 -18 -45 -16 -8 3 -6 6 5 6 9 1 17 5 17 10 0 5 8 12 18 14 35 9 36 6 5 -14z
m117 7 c0 -2 -7 -6 -15 -10 -8 -3 -15 -1 -15 4 0 6 7 10 15 10 8 0 15 -2 15
-4z m690 -6 c0 -5 -5 -10 -11 -10 -5 0 -7 5 -4 10 3 6 8 10 11 10 2 0 4 -4 4
-10z m427 -20 c1 -16 -1 -17 -12 -7 -7 6 -11 15 -8 20 8 13 19 7 20 -13z
m-432 -10 c3 -5 1 -10 -4 -10 -6 0 -11 5 -11 10 0 6 2 10 4 10 3 0 8 -4 11
-10z m-895 -15 c0 -2 -18 -14 -41 -26 -23 -11 -38 -16 -34 -9 3 6 21 17 38 24
40 18 37 17 37 11z m-657 -30 c-3 -9 -8 -14 -10 -11 -3 3 -2 9 2 15 9 16 15
13 8 -4z m127 0 c0 -9 -9 -15 -21 -15 -18 0 -19 2 -9 15 7 8 16 15 21 15 5 0
9 -7 9 -15z m1580 -5 c0 -5 -4 -10 -10 -10 -5 0 -10 5 -10 10 0 6 5 10 10 10
6 0 10 -4 10 -10z m-1158 -25 c-24 -17 -101 -51 -90 -40 10 11 92 54 103 55 5
0 0 -7 -13 -15z m-495 -11 c-3 -3 -12 -4 -19 -1 -8 3 -5 6 6 6 11 1 17 -2 13
-5z m391 -18 c-7 -8 -15 -12 -17 -11 -5 6 10 25 20 25 5 0 4 -6 -3 -14z m-352
-33 c-10 -10 -19 5 -10 18 6 11 8 11 12 0 2 -7 1 -15 -2 -18z m164 23 c0 -3
-4 -8 -10 -11 -5 -3 -10 -1 -10 4 0 6 5 11 10 11 6 0 10 -2 10 -4z m160 -26
c-8 -5 -22 -9 -30 -9 -10 0 -8 3 5 9 27 12 43 12 25 0z m-80 -40 c0 -5 -2 -10
-4 -10 -3 0 -8 5 -11 10 -3 6 -1 10 4 10 6 0 11 -4 11 -10z m-50 -24 c0 -3 -4
-8 -10 -11 -5 -3 -10 -1 -10 4 0 6 5 11 10 11 6 0 10 -2 10 -4z m-60 -31 c-7
-9 -15 -13 -17 -11 -7 7 7 26 19 26 6 0 6 -6 -2 -15z m-106 -70 c-10 -8 -23
-14 -29 -14 -5 0 -1 6 9 14 11 8 24 15 30 15 5 0 1 -7 -10 -15z m-59 -35 c-3
-6 -24 -19 -46 -30 -31 -14 -37 -15 -28 -4 7 9 26 21 43 29 39 17 38 17 31 5z
m2545 -540 c0 -5 -4 -10 -10 -10 -5 0 -10 5 -10 10 0 6 5 10 10 10 6 0 10 -4
10 -10z m105 -10 c3 -5 2 -10 -4 -10 -5 0 -13 5 -16 10 -3 6 -2 10 4 10 5 0
13 -4 16 -10z m-388 -116 c-3 -3 -12 -4 -19 -1 -8 3 -5 6 6 6 11 1 17 -2 13
-5z m1754 -223 c-13 -9 -71 -2 -71 8 0 4 19 5 41 3 23 -3 36 -8 30 -11z m-11
-22 c18 -6 11 -7 -28 -5 -29 2 -56 7 -59 10 -9 9 58 5 87 -5z m-95 -9 c4 -6 1
-18 -7 -27 -11 -15 -11 -16 5 -10 12 5 17 1 17 -13 0 -27 -15 -32 -34 -11 -12
13 -15 27 -10 45 6 27 18 33 29 16z m62 -16 c-3 -3 -12 -4 -19 -1 -8 3 -5 6 6
6 11 1 17 -2 13 -5z m168 -17 c0 -7 11 -11 23 -10 30 4 28 -9 -5 -25 -22 -10
-30 -10 -41 2 -11 11 -12 18 -2 36 11 21 25 20 25 -3z m-415 -47 c0 -5 -4 -10
-10 -10 -5 0 -10 5 -10 10 0 6 5 10 10 10 6 0 10 -4 10 -10z"/>
<path d="M470 1390 c-11 -7 -7 -10 18 -10 17 0 32 5 32 10 0 13 -30 13 -50 0z"/>
<path d="M285 3600 c3 -5 11 -10 16 -10 6 0 7 5 4 10 -3 6 -11 10 -16 10 -6 0
-7 -4 -4 -10z"/>
<path d="M575 3589 c-4 -11 -18 -25 -32 -30 -14 -5 -23 -12 -20 -15 3 -3 16 0
29 7 12 7 29 12 36 11 6 -2 12 2 12 9 0 6 7 8 16 5 10 -4 14 -2 11 6 -2 7 -10
12 -16 11 -6 -2 -11 2 -11 7 0 18 -19 10 -25 -11z"/>
<path d="M2925 3600 c-3 -5 -1 -10 4 -10 6 0 11 5 11 10 0 6 -2 10 -4 10 -3 0
-8 -4 -11 -10z"/>
<path d="M127 3570 c-5 -20 -27 -28 -27 -10 0 6 -5 10 -10 10 -7 0 -7 -6 0
-20 15 -27 25 -25 50 10 16 23 18 30 7 30 -8 0 -17 -9 -20 -20z"/>
<path d="M2673 3525 c0 -33 2 -45 4 -27 2 18 2 45 0 60 -2 15 -4 0 -4 -33z"/>
<path d="M403 3535 c-17 -19 -16 -22 5 -27 12 -4 17 2 18 19 2 26 -5 29 -23 8z"/>
<path d="M2452 3530 c0 -14 2 -19 5 -12 2 6 2 18 0 25 -3 6 -5 1 -5 -13z"/>
<path d="M252 3507 c-19 -32 -19 -34 -2 -30 10 3 21 16 25 30 9 38 0 38 -23 0z"/>
<path d="M2919 3484 c0 -27 -3 -103 -5 -168 -3 -66 -1 -117 2 -113 9 8 10 34
14 195 1 67 0 126 -4 129 -3 3 -6 -16 -7 -43z"/>
<path d="M348 3503 c7 -3 16 -2 19 1 4 3 -2 6 -13 5 -11 0 -14 -3 -6 -6z"/>
<path d="M125 3469 c-4 -6 -4 -13 -1 -16 3 -3 1 -12 -5 -20 -14 -16 -5 -17 22
-2 16 8 18 14 9 24 -8 10 -7 14 2 18 9 4 7 6 -4 6 -9 1 -20 -4 -23 -10z"/>
<path d="M182 3461 c-10 -6 -10 -10 2 -20 16 -13 29 -2 18 16 -4 7 -13 8 -20
4z"/>
<path d="M2668 3334 c-2 -69 0 -128 5 -131 4 -2 7 55 7 126 0 72 -2 131 -4
131 -3 0 -6 -57 -8 -126z"/>
<path d="M2878 3385 c-4 -32 -5 -61 -3 -64 12 -11 16 11 13 65 l-3 59 -7 -60z"/>
<path d="M2482 3380 c0 -19 2 -27 5 -17 2 9 2 25 0 35 -3 9 -5 1 -5 -18z"/>
<path d="M128 3333 c7 -3 16 -2 19 1 4 3 -2 6 -13 5 -11 0 -14 -3 -6 -6z"/>
<path d="M2478 3327 c-5 -10 -8 -34 -8 -53 0 -27 -5 -37 -22 -44 -22 -8 -22
-9 5 -9 33 -1 39 11 35 75 -2 34 -5 43 -10 31z"/>
<path d="M2869 3265 c-5 -50 -4 -63 7 -53 3 3 4 28 2 54 l-3 49 -6 -50z"/>
<path d="M3070 3264 c0 -8 5 -12 10 -9 6 3 10 10 10 16 0 5 -4 9 -10 9 -5 0
-10 -7 -10 -16z"/>
<path d="M2138 3233 c7 -3 16 -2 19 1 4 3 -2 6 -13 5 -11 0 -14 -3 -6 -6z"/>
<path d="M3070 3190 c0 -85 15 -91 345 -125 83 -9 160 -17 173 -19 12 -2 22 0
22 4 0 5 -19 10 -42 13 -24 3 -81 10 -128 16 -47 6 -114 13 -150 16 -84 7
-182 26 -196 37 -7 5 -10 28 -7 58 3 32 1 50 -6 50 -6 0 -11 -21 -11 -50z"/>
<path d="M2863 3135 c0 -33 2 -45 4 -27 2 18 2 45 0 60 -2 15 -4 0 -4 -33z"/>
<path d="M4666 3165 c-8 -9 -20 -32 -26 -53 -16 -54 -25 -182 -13 -182 6 0 13
33 16 73 5 72 31 157 48 157 5 0 9 5 9 10 0 15 -16 12 -34 -5z"/>
<path d="M2911 3124 c0 -11 3 -14 6 -6 3 7 2 16 -1 19 -3 4 -6 -2 -5 -13z"/>
<path d="M2985 3098 c-16 -6 -36 -12 -42 -14 -7 -2 -13 -10 -13 -18 0 -12 7
-11 40 5 21 10 43 19 49 19 5 0 13 5 16 10 8 12 -10 11 -50 -2z"/>
<path d="M2862 3048 c5 -15 28 -23 28 -10 0 5 -7 13 -16 16 -10 4 -14 1 -12
-6z"/>
<path d="M2985 3041 c11 -4 47 -11 80 -14 35 -4 52 -3 40 2 -11 5 -47 11 -80
15 -36 3 -52 2 -40 -3z"/>
<path d="M3170 3020 c0 -5 4 -10 9 -10 6 0 13 5 16 10 3 6 -1 10 -9 10 -9 0
-16 -4 -16 -10z"/>
<path d="M3215 3019 c-7 -10 128 -29 138 -19 4 4 -24 11 -63 17 -39 5 -73 6
-75 2z"/>
<path d="M18 3012 c-10 -2 -18 -8 -18 -13 0 -11 11 -11 30 1 18 11 11 18 -12
12z"/>
<path d="M3073 3003 c9 -2 25 -2 35 0 9 3 1 5 -18 5 -19 0 -27 -2 -17 -5z"/>
<path d="M3188 2993 c7 -3 16 -2 19 1 4 3 -2 6 -13 5 -11 0 -14 -3 -6 -6z"/>
<path d="M3378 2993 c6 -2 18 -2 25 0 6 3 1 5 -13 5 -14 0 -19 -2 -12 -5z"/>
<path d="M3425 2991 c3 -6 22 -11 42 -11 44 0 41 5 -10 14 -27 5 -37 4 -32 -3z"/>
<path d="M4982 2983 c2 -12 13 -19 33 -20 17 -2 82 -7 145 -13 63 -5 165 -12
225 -15 106 -6 162 -12 196 -21 11 -3 18 3 21 20 6 31 -13 37 -78 25 -27 -5
-52 -5 -58 0 -17 13 -78 19 -108 10 -16 -4 -30 -3 -33 2 -3 5 -16 8 -28 8 -41
-2 -282 12 -300 17 -14 5 -18 1 -15 -13z"/>
<path d="M3233 2983 c9 -2 23 -2 30 0 6 3 -1 5 -18 5 -16 0 -22 -2 -12 -5z"/>
<path d="M3281 2976 c2 -2 36 -6 74 -9 44 -4 61 -3 45 2 -24 9 -127 15 -119 7z"/>
<path d="M3528 2973 c7 -3 16 -2 19 1 4 3 -2 6 -13 5 -11 0 -14 -3 -6 -6z"/>
<path d="M3585 2960 c11 -5 34 -8 50 -8 29 0 29 0 5 8 -14 4 -36 8 -50 8 -23
1 -23 0 -5 -8z"/>
<path d="M5617 2953 c-13 -12 -7 -31 12 -36 23 -6 42 10 34 29 -5 15 -35 19
-46 7z"/>
<path d="M3535 2940 c3 -5 8 -10 11 -10 2 0 4 5 4 10 0 6 -5 10 -11 10 -5 0
-7 -4 -4 -10z"/>
<path d="M2630 2903 c0 -43 5 -41 13 5 4 18 2 32 -3 32 -6 0 -10 -16 -10 -37z"/>
<path d="M2661 2815 c-1 -55 -4 -154 -6 -221 -2 -66 1 -127 5 -135 11 -17 17
240 9 366 l-5 90 -3 -100z"/>
<path d="M2630 2790 c0 -40 2 -71 6 -68 7 8 7 128 0 136 -3 3 -6 -28 -6 -68z"/>
<path d="M5296 2821 c-23 -26 -20 -58 9 -77 41 -27 115 4 115 47 0 36 -97 60
-124 30z"/>
<path d="M2700 2779 c0 -5 10 -9 23 -9 12 0 33 -3 47 -6 17 -5 22 -3 15 3 -14
14 -85 24 -85 12z"/>
<path d="M2820 2760 c8 -5 24 -9 35 -9 l20 0 -20 9 c-11 5 -27 9 -35 9 -13 1
-13 0 0 -9z"/>
<path d="M3827 2723 c-4 -3 -7 -11 -7 -17 0 -6 5 -5 12 2 6 6 9 14 7 17 -3 3
-9 2 -12 -2z"/>
<path d="M3403 2703 c9 -2 25 -2 35 0 9 3 1 5 -18 5 -19 0 -27 -2 -17 -5z"/>
<path d="M3064 2648 c-29 -31 -29 -31 -2 -12 15 10 29 25 32 32 8 18 2 15 -30
-20z"/>
<path d="M3760 2659 c0 -5 5 -7 10 -4 6 3 10 8 10 11 0 2 -4 4 -10 4 -5 0 -10
-5 -10 -11z"/>
<path d="M3628 2630 c27 -25 35 -28 47 -18 12 11 11 16 -7 31 -11 9 -32 17
-47 17 l-26 -1 33 -29z"/>
<path d="M525 2609 c-33 -16 -49 -26 -35 -23 29 8 100 42 100 49 0 6 5 8 -65
-26z"/>
<path d="M3708 2633 c7 -3 16 -2 19 1 4 3 -2 6 -13 5 -11 0 -14 -3 -6 -6z"/>
<path d="M3680 2590 c0 -5 5 -10 11 -10 5 0 7 5 4 10 -3 6 -8 10 -11 10 -2 0
-4 -4 -4 -10z"/>
<path d="M2990 2575 c-7 -9 -10 -18 -7 -21 3 -3 10 4 17 15 13 25 8 27 -10 6z"/>
<path d="M425 2570 c-8 -13 5 -13 25 0 13 8 13 10 -2 10 -9 0 -20 -4 -23 -10z"/>
<path d="M3710 2575 c0 -2 15 -12 33 -20 l32 -16 -25 20 c-24 20 -40 26 -40
16z"/>
<path d="M375 2550 c-3 -5 -1 -10 4 -10 6 0 11 5 11 10 0 6 -2 10 -4 10 -3 0
-8 -4 -11 -10z"/>
<path d="M3581 2514 c0 -11 3 -14 6 -6 3 7 2 16 -1 19 -3 4 -6 -2 -5 -13z"/>
<path d="M2901 2449 c-17 -33 -40 -70 -51 -81 -11 -12 -20 -27 -20 -32 1 -15
43 38 67 83 11 20 28 49 37 64 10 15 14 27 8 27 -6 0 -25 -27 -41 -61z"/>
<path d="M225 2485 c-25 -12 -26 -14 -5 -9 14 4 29 10 35 15 12 12 5 11 -30
-6z"/>
<path d="M2208 2466 c-13 -17 -28 -37 -32 -44 -13 -22 30 4 47 28 12 17 19 18
77 10 35 -5 66 -7 69 -5 5 6 -8 10 -80 28 l-57 13 -24 -30z"/>
<path d="M3590 2470 c0 -8 5 -22 10 -30 9 -13 10 -13 10 0 0 8 -5 22 -10 30
-9 13 -10 13 -10 0z"/>
<path d="M3637 2443 c20 -53 163 -226 177 -213 2 3 -27 38 -65 78 -38 40 -78
90 -89 112 -21 41 -35 54 -23 23z"/>
<path d="M105 2430 c-3 -6 1 -7 9 -4 18 7 21 14 7 14 -6 0 -13 -4 -16 -10z"/>
<path d="M2109 2372 c-20 -14 -40 -36 -45 -47 -5 -11 -19 -24 -31 -30 -13 -5
-23 -13 -23 -17 0 -5 -6 -8 -13 -8 -18 0 -64 -49 -76 -83 -6 -16 -11 -46 -11
-67 0 -22 -7 -45 -16 -54 -14 -14 -12 -15 18 -10 59 10 60 11 47 36 -10 20 -8
19 16 -5 23 -22 34 -27 56 -22 16 4 49 8 74 9 56 3 70 -10 89 -90 10 -40 15
-50 15 -30 1 29 1 29 49 22 151 -23 186 -26 193 -15 4 7 8 6 12 -4 4 -10 24
-15 74 -16 37 -1 76 -4 86 -7 9 -3 17 0 17 6 0 6 39 91 88 188 102 205 98 197
84 188 -6 -3 -21 -28 -34 -54 -13 -26 -26 -49 -29 -52 -4 -3 -24 -42 -45 -87
-21 -46 -42 -83 -47 -83 -5 0 -2 12 8 26 9 14 14 28 11 31 -2 3 -60 7 -128 9
-131 5 -363 29 -438 45 -25 6 -71 12 -104 14 -32 2 -61 7 -64 10 -8 8 31 34
43 28 5 -4 7 -2 2 2 -7 9 20 45 34 45 9 0 49 33 94 77 18 18 36 29 40 25 5 -4
5 -2 1 5 -3 6 -2 14 4 18 14 9 13 25 -2 25 -7 -1 -29 -13 -49 -28z m-169 -256
c0 -3 -4 -8 -10 -11 -5 -3 -10 -1 -10 4 0 6 5 11 10 11 6 0 10 -2 10 -4z m0
-36 c0 -5 -2 -10 -4 -10 -3 0 -8 5 -11 10 -3 6 -1 10 4 10 6 0 11 -4 11 -10z
m345 0 c-3 -5 -11 -10 -16 -10 -6 0 -7 5 -4 10 3 6 11 10 16 10 6 0 7 -4 4
-10z m293 -6 c28 -4 31 -8 22 -19 -7 -8 -17 -12 -24 -8 -6 4 -24 6 -40 4 -21
-2 -26 1 -20 10 5 9 2 11 -9 6 -10 -4 -32 -3 -50 0 l-32 7 30 6 c30 5 58 4
123 -6z m-253 -34 c3 -5 -3 -10 -14 -10 -10 0 -26 -3 -35 -6 -11 -4 -16 -1
-16 10 0 18 54 23 65 6z m-107 -35 c-3 -3 -9 2 -12 12 -6 14 -5 15 5 6 7 -7
10 -15 7 -18z m196 12 c15 -11 14 -13 -11 -11 -46 2 -53 4 -53 14 0 14 43 12
64 -3z m186 -16 c0 -12 -2 -13 -9 -3 -4 7 -12 12 -17 11 -20 -3 -35 1 -30 10
9 14 56 0 56 -18z m-10 -31 c0 -5 -7 -10 -16 -10 -8 0 -12 5 -9 10 3 6 10 10
16 10 5 0 9 -4 9 -10z m45 -10 c-3 -5 -10 -10 -16 -10 -5 0 -9 5 -9 10 0 6 7
10 16 10 8 0 12 -4 9 -10z"/>
<path d="M3630 2381 c-1 -38 120 -201 150 -201 5 0 -14 24 -43 53 -29 29 -64
77 -79 107 -15 30 -27 49 -28 41z"/>
<path d="M3079 2302 c-14 -26 -50 -92 -80 -147 -80 -145 -93 -184 -22 -69 54
89 143 251 143 260 0 17 -19 -4 -41 -44z"/>
<path d="M1490 2239 c0 -5 5 -7 10 -4 6 3 10 8 10 11 0 2 -4 4 -10 4 -5 0 -10
-5 -10 -11z"/>
<path d="M1316 2154 c-11 -8 -16 -14 -10 -14 13 0 39 18 34 24 -3 2 -14 -2
-24 -10z"/>
<path d="M1350 2150 c0 -5 5 -10 10 -10 6 0 10 5 10 10 0 6 -4 10 -10 10 -5 0
-10 -4 -10 -10z"/>
<path d="M4917 2093 c-36 -92 -67 -312 -67 -479 0 -46 3 -84 8 -84 4 0 7 51 8
113 0 114 40 351 70 426 8 18 14 40 14 47 0 27 -18 14 -33 -23z"/>
<path d="M1819 2066 c-2 -2 -42 -6 -87 -9 -48 -3 -89 -10 -95 -17 -9 -10 -8
-12 4 -7 9 3 62 8 117 12 56 4 102 11 102 16 0 9 -33 13 -41 5z"/>
<path d="M1520 2030 c0 -5 7 -10 16 -10 8 0 12 5 9 10 -3 6 -10 10 -16 10 -5
0 -9 -4 -9 -10z"/>
<path d="M1560 2030 c0 -5 7 -10 16 -10 8 0 12 5 9 10 -3 6 -10 10 -16 10 -5
0 -9 -4 -9 -10z"/>
<path d="M5003 1997 c-44 -47 -76 -97 -68 -105 4 -4 12 1 19 12 6 10 28 40 50
68 44 56 44 73 -1 25z"/>
<path d="M1749 1943 c-13 -16 -12 -17 4 -4 9 7 17 15 17 17 0 8 -8 3 -21 -13z"/>
<path d="M1815 1950 c-8 -13 5 -13 25 0 13 8 13 10 -2 10 -9 0 -20 -4 -23 -10z"/>
<path d="M1620 1936 c0 -2 7 -7 16 -10 8 -3 12 -2 9 4 -6 10 -25 14 -25 6z"/>
<path d="M1690 1925 c-10 -12 -10 -15 3 -15 19 0 31 16 18 24 -5 3 -14 -1 -21
-9z"/>
<path d="M1530 1909 c0 -5 5 -7 10 -4 6 3 10 8 10 11 0 2 -4 4 -10 4 -5 0 -10
-5 -10 -11z"/>
<path d="M2211 1888 c0 -15 -5 -29 -10 -32 -5 -3 -64 -15 -132 -26 -121 -20
-267 -55 -189 -46 98 12 208 33 460 87 91 19 120 22 120 11 0 -5 -35 -18 -77
-28 -92 -21 -77 -30 17 -11 48 10 66 17 68 31 6 31 -11 37 -67 25 -29 -6 -58
-12 -64 -13 -7 -2 -32 -8 -56 -15 -46 -13 -56 -9 -64 24 -4 15 -5 14 -6 -7z"/>
<path d="M1696 1882 c-4 -4 -22 -13 -39 -20 l-32 -12 40 6 c43 6 63 18 47 28
-5 3 -12 2 -16 -2z"/>
<path d="M1747 1879 c7 -7 15 -10 18 -7 3 3 -2 9 -12 12 -14 6 -15 5 -6 -5z"/>
<path d="M2601 1854 c0 -11 3 -14 6 -6 3 7 2 16 -1 19 -3 4 -6 -2 -5 -13z"/>
<path d="M1550 1846 c4 -4 21 -4 37 2 28 10 28 10 -9 8 -21 0 -33 -5 -28 -10z"/>
<path d="M1828 1853 c6 -2 18 -2 25 0 6 3 1 5 -13 5 -14 0 -19 -2 -12 -5z"/>
<path d="M1665 1822 c-6 -5 -39 -14 -75 -21 -36 -7 -69 -16 -73 -20 -4 -4 20
-2 54 5 35 7 66 11 70 8 10 -6 49 17 49 28 0 10 -14 10 -25 0z"/>
<path d="M1738 1823 c7 -3 16 -2 19 1 4 3 -2 6 -13 5 -11 0 -14 -3 -6 -6z"/>
<path d="M2235 1824 c-5 -2 -57 -13 -115 -24 -188 -35 -240 -47 -248 -55 -8
-9 75 1 133 15 22 6 96 21 164 35 68 14 126 27 129 30 6 6 -48 5 -63 -1z"/>
<path d="M2231 1780 c0 -8 4 -24 9 -35 5 -13 9 -14 9 -5 0 8 -4 24 -9 35 -5
13 -9 14 -9 5z"/>
<path d="M1788 1775 c-9 -9 4 -55 16 -55 22 0 56 13 56 21 0 4 -12 7 -27 6
-22 -2 -27 2 -25 16 3 16 -9 23 -20 12z"/>
<path d="M2365 1770 c3 -5 8 -10 11 -10 2 0 4 5 4 10 0 6 -5 10 -11 10 -5 0
-7 -4 -4 -10z"/>
<path d="M3294 1605 c6 -201 37 -495 60 -568 8 -26 14 -50 14 -53 1 -16 57
-172 68 -189 21 -30 17 -6 -21 120 -38 124 -71 298 -80 418 -3 39 -8 88 -10
107 -2 19 -7 98 -10 175 -11 213 -27 205 -21 -10z"/>
<path d="M800 1746 c0 -9 5 -16 10 -16 6 0 10 4 10 9 0 6 -4 13 -10 16 -5 3
-10 -1 -10 -9z"/>
<path d="M2430 1756 c0 -2 7 -7 16 -10 8 -3 12 -2 9 4 -6 10 -25 14 -25 6z"/>
<path d="M1710 1730 c0 -5 12 -10 26 -10 14 0 23 4 19 10 -3 6 -15 10 -26 10
-10 0 -19 -4 -19 -10z"/>
<path d="M2318 1728 c5 -5 16 -8 23 -6 8 3 3 7 -10 11 -17 4 -21 3 -13 -5z"/>
<path d="M870 1720 c0 -5 5 -10 11 -10 5 0 7 5 4 10 -3 6 -8 10 -11 10 -2 0
-4 -4 -4 -10z"/>
<path d="M1140 1720 c0 -5 7 -10 15 -10 8 0 15 5 15 10 0 6 -7 10 -15 10 -8 0
-15 -4 -15 -10z"/>
<path d="M1245 1710 c-3 -5 -1 -10 4 -10 6 0 11 5 11 10 0 6 -2 10 -4 10 -3 0
-8 -4 -11 -10z"/>
<path d="M2388 1713 c6 -2 18 -2 25 0 6 3 1 5 -13 5 -14 0 -19 -2 -12 -5z"/>
<path d="M1100 1695 c0 -8 5 -15 10 -15 6 0 10 7 10 15 0 8 -4 15 -10 15 -5 0
-10 -7 -10 -15z"/>
<path d="M1593 1693 c9 -2 23 -2 30 0 6 3 -1 5 -18 5 -16 0 -22 -2 -12 -5z"/>
<path d="M2061 1683 c-17 -11 -51 -17 -110 -20 -59 -2 -90 -8 -100 -18 -10 -9
-11 -15 -4 -15 7 0 14 4 17 9 3 4 34 9 68 10 79 3 96 5 133 21 17 7 41 16 55
20 24 8 24 8 -5 9 -17 1 -41 -6 -54 -16z"/>
<path d="M1290 1680 c0 -5 7 -7 15 -4 8 4 15 8 15 10 0 2 -7 4 -15 4 -8 0 -15
-4 -15 -10z"/>
<path d="M2260 1670 c0 -8 5 -22 10 -30 9 -13 10 -13 10 0 0 8 -5 22 -10 30
-9 13 -10 13 -10 0z"/>
<path d="M1610 1655 c-31 -18 -16 -18 30 0 23 9 28 14 15 14 -11 0 -31 -6 -45
-14z"/>
<path d="M920 1649 c0 -5 5 -7 10 -4 6 3 10 8 10 11 0 2 -4 4 -10 4 -5 0 -10
-5 -10 -11z"/>
<path d="M1080 1640 c0 -5 5 -10 10 -10 6 0 10 5 10 10 0 6 -4 10 -10 10 -5 0
-10 -4 -10 -10z"/>
<path d="M890 1625 c-11 -13 -10 -14 4 -9 9 3 16 10 16 15 0 13 -6 11 -20 -6z"/>
<path d="M1785 1621 c-21 -5 -25 -8 -14 -13 8 -3 26 0 40 8 26 14 21 15 -26 5z"/>
<path d="M780 1610 c0 -13 11 -13 30 0 12 8 11 10 -7 10 -13 0 -23 -4 -23 -10z"/>
<path d="M1684 1605 c-25 -19 -15 -19 27 0 25 10 29 14 13 15 -11 0 -29 -7
-40 -15z"/>
<path d="M2280 1610 c0 -5 -11 -10 -25 -10 -14 0 -25 -4 -25 -8 0 -4 15 -6 34
-4 25 3 33 8 29 18 -6 16 -13 18 -13 4z"/>
<path d="M840 1600 c0 -5 4 -10 9 -10 6 0 13 5 16 10 3 6 -1 10 -9 10 -9 0
-16 -4 -16 -10z"/>
<path d="M1587 1603 c-13 -12 -7 -22 9 -16 9 3 19 1 23 -6 5 -8 13 -7 27 5 18
15 18 15 -3 9 -14 -4 -23 -2 -23 4 0 12 -23 15 -33 4z"/>
<path d="M2140 1580 c-24 -8 -24 -8 7 -9 17 -1 35 4 38 9 7 11 -9 11 -45 0z"/>
<path d="M2025 1555 c-31 -10 -34 -13 -15 -13 14 0 43 5 65 13 31 10 34 13 15
13 -14 0 -43 -5 -65 -13z"/>
<path d="M2290 1540 c0 -5 5 -10 10 -10 6 0 10 5 10 10 0 6 -4 10 -10 10 -5 0
-10 -4 -10 -10z"/>
<path d="M1888 1533 c-21 -2 -38 -8 -38 -14 0 -10 70 -2 105 12 18 7 17 8 -5
7 -14 -1 -42 -3 -62 -5z"/>
<path d="M2170 1523 c0 -5 18 -14 40 -20 22 -5 40 -7 40 -2 0 7 -8 10 -62 25
-10 3 -18 1 -18 -3z"/>
<path d="M2265 1500 c3 -5 12 -10 20 -10 8 0 17 5 20 10 4 6 -5 10 -20 10 -15
0 -24 -4 -20 -10z"/>
<path d="M5598 1209 c-80 -107 -108 -152 -108 -169 1 -11 4 -9 12 5 17 31 109
157 136 187 13 14 22 32 20 39 -2 7 -29 -21 -60 -62z"/>
<path d="M221 1224 c-13 -13 -32 -24 -42 -24 -13 0 -19 -7 -19 -21 0 -19 -2
-20 -16 -8 -13 11 -17 10 -25 -4 -6 -9 -16 -17 -23 -17 -21 0 -50 -26 -42 -39
6 -9 13 -8 26 4 10 9 24 14 29 10 6 -3 14 1 17 10 4 9 12 14 19 11 7 -2 17 6
24 20 6 15 19 24 33 24 33 1 62 25 51 44 -7 12 -12 11 -32 -10z"/>
<path d="M3254 1084 c12 -120 59 -294 79 -294 5 0 6 10 3 23 -8 26 -53 245
-61 300 -3 20 -11 37 -17 37 -7 0 -9 -21 -4 -66z"/>
<path d="M4757 913 c-4 -3 -7 -29 -7 -57 -1 -28 -7 -87 -15 -131 -17 -94 -19
-165 -5 -165 6 0 10 2 10 4 0 2 9 64 20 138 27 180 26 241 -3 211z"/>
<path d="M5151 570 l-24 -10 6 -158 c4 -86 7 -167 7 -180 0 -22 2 -23 98 -20
l97 3 0 177 c0 97 -4 180 -8 185 -12 12 -149 14 -176 3z m156 -24 c3 -3 6 -74
7 -158 l1 -153 -72 -3 -72 -3 -5 43 c-3 24 -8 96 -11 160 l-6 117 33 3 c43 4
119 1 125 -6z"/>
<path d="M5260 523 c0 -38 13 -93 21 -93 11 0 12 35 3 79 -7 33 -24 43 -24 14z"/>
<path d="M5200 494 c-6 -14 -10 -33 -10 -42 1 -15 3 -15 15 2 15 20 15 20 29
0 23 -31 32 -6 11 31 -22 42 -32 44 -45 9z"/>
<path d="M5193 393 c-7 -15 -9 -29 -5 -32 10 -7 10 -56 1 -65 -3 -4 -4 -18 -1
-31 4 -23 9 -25 58 -25 42 0 54 3 54 15 0 9 -12 20 -26 25 -32 13 -37 12 -29
0 3 -5 -1 -10 -9 -10 -19 0 -20 9 -2 32 11 15 15 16 33 3 19 -13 22 -13 27 1
11 29 6 81 -9 94 -13 11 -15 8 -16 -16 -1 -17 -3 -22 -6 -11 -2 9 -13 17 -24
17 -10 0 -19 7 -19 15 0 23 -14 17 -27 -12z"/>
<path d="M5760 540 c0 -5 5 -10 10 -10 6 0 10 5 10 10 0 6 -4 10 -10 10 -5 0
-10 -4 -10 -10z"/>
<path d="M5665 440 c-3 -5 -1 -10 4 -10 6 0 11 5 11 10 0 6 -2 10 -4 10 -3 0
-8 -4 -11 -10z"/>
<path d="M5860 440 c0 -5 5 -10 10 -10 6 0 10 5 10 10 0 6 -4 10 -10 10 -5 0
-10 -4 -10 -10z"/>
<path d="M1818 423 c7 -3 16 -2 19 1 4 3 -2 6 -13 5 -11 0 -14 -3 -6 -6z"/>
<path d="M1741 404 c0 -11 3 -14 6 -6 3 7 2 16 -1 19 -3 4 -6 -2 -5 -13z"/>
<path d="M5830 405 c-10 -12 -10 -15 4 -15 9 0 16 7 16 15 0 8 -2 15 -4 15 -2
0 -9 -7 -16 -15z"/>
<path d="M1766 391 c-7 -11 22 -23 35 -15 5 3 9 9 9 15 0 12 -37 12 -44 0z"/>
<path d="M2011 387 c-1 -10 -5 -15 -11 -12 -5 3 -10 -2 -10 -12 0 -16 1 -16
16 -1 9 9 14 22 11 30 -4 9 -6 7 -6 -5z"/>
<path d="M1934 366 c-9 -20 -9 -23 8 -18 10 2 18 13 18 23 0 26 -13 24 -26 -5z"/>
<path d="M1830 371 c0 -6 0 -14 0 -18 1 -11 43 -4 55 9 7 6 3 9 -10 7 -11 -2
-26 0 -32 4 -8 5 -13 4 -13 -2z"/>
<path d="M2360 350 c0 -5 6 -10 14 -10 8 0 18 5 21 10 3 6 -3 10 -14 10 -12 0
-21 -4 -21 -10z"/>
<path d="M1819 319 c-11 -6 -11 -11 -2 -20 9 -9 15 -8 27 4 12 12 13 16 2 20
-7 3 -19 1 -27 -4z"/>
<path d="M1920 315 c0 -8 4 -15 10 -15 5 0 7 7 4 15 -4 8 -8 15 -10 15 -2 0
-4 -7 -4 -15z"/>
<path d="M1920 280 c0 -5 5 -10 11 -10 5 0 7 5 4 10 -3 6 -8 10 -11 10 -2 0
-4 -4 -4 -10z"/>
<path d="M2525 280 c4 -6 11 -8 16 -5 14 9 11 15 -7 15 -8 0 -12 -5 -9 -10z"/>
<path d="M2640 280 c0 -8 25 -20 41 -20 20 0 7 18 -16 22 -14 3 -25 2 -25 -2z"/>
<path d="M2880 276 c0 -8 -5 -16 -12 -18 -7 -3 -6 -7 5 -11 13 -5 17 -1 17 18
0 14 -2 25 -5 25 -3 0 -5 -6 -5 -14z"/>
<path d="M2996 273 c-11 -11 -6 -23 9 -23 8 0 15 4 15 9 0 13 -16 22 -24 14z"/>
<path d="M3035 270 c3 -5 8 -10 11 -10 2 0 4 5 4 10 0 6 -5 10 -11 10 -5 0 -7
-4 -4 -10z"/>
<path d="M1790 260 c0 -5 5 -10 11 -10 5 0 7 5 4 10 -3 6 -8 10 -11 10 -2 0
-4 -4 -4 -10z"/>
<path d="M1835 259 c-4 -6 -4 -25 -1 -44 4 -19 2 -36 -4 -40 -12 -7 -13 -25
-2 -25 5 0 16 6 26 13 15 11 17 21 11 60 -7 46 -17 58 -30 36z"/>
<path d="M2755 260 c-3 -5 -2 -10 4 -10 5 0 13 5 16 10 3 6 2 10 -4 10 -5 0
-13 -4 -16 -10z"/>
<path d="M2920 256 c0 -15 18 -31 26 -23 7 7 -7 37 -17 37 -5 0 -9 -6 -9 -14z"/>
<path d="M3105 251 c-11 -5 -24 -6 -29 -3 -5 2 -7 -1 -4 -9 7 -22 32 -21 46 1
7 11 11 20 10 19 -2 0 -12 -4 -23 -8z"/>
<path d="M1742 230 c0 -14 2 -19 5 -12 2 6 2 18 0 25 -3 6 -5 1 -5 -13z"/>
<path d="M1928 237 c15 -18 3 -30 -15 -16 -15 13 -15 11 -13 -71 1 -30 6 -59
11 -64 5 -6 9 -18 9 -28 0 -19 16 -23 39 -9 11 7 12 16 4 43 l-11 33 -1 -33
c-2 -55 -21 -25 -21 32 0 34 5 58 14 65 17 14 10 47 -11 56 -12 4 -13 3 -5 -8z"/>
<path d="M3016 228 c-21 -10 -37 -21 -34 -23 8 -8 78 21 78 32 0 7 -1 13 -2
12 -2 -1 -20 -10 -42 -21z"/>
<path d="M3352 241 c-11 -7 -11 -9 0 -14 9 -3 15 1 15 9 0 8 -1 14 -1 14 -1 0
-7 -4 -14 -9z"/>
<path d="M5475 230 c-3 -6 1 -7 9 -4 18 7 21 14 7 14 -6 0 -13 -4 -16 -10z"/>
<path d="M2452 218 c5 -15 28 -23 28 -10 0 5 -7 13 -16 16 -10 4 -14 1 -12 -6z"/>
<path d="M3401 214 c-7 -8 -10 -18 -6 -22 3 -3 9 -1 13 5 4 6 23 16 42 21 l35
10 -35 1 c-19 0 -41 -7 -49 -15z"/>
<path d="M1815 200 c-3 -5 -1 -10 4 -10 6 0 11 5 11 10 0 6 -2 10 -4 10 -3 0
-8 -4 -11 -10z"/>
<path d="M2614 195 c-12 -9 -14 -14 -5 -15 7 0 11 -6 7 -15 -3 -9 0 -15 9 -15
8 0 15 6 15 14 0 8 5 16 12 18 12 4 3 28 -11 28 -4 0 -16 -7 -27 -15z"/>
<path d="M2720 208 c0 -4 5 -19 12 -33 9 -21 18 -26 43 -24 16 2 36 0 43 -5 8
-5 12 1 12 20 0 22 -3 25 -12 16 -20 -20 -65 -14 -82 10 -9 12 -16 19 -16 16z"/>
<path d="M3437 203 c-11 -10 -8 -25 3 -18 6 3 10 -1 10 -10 0 -9 4 -14 9 -11
5 3 7 15 4 26 -5 21 -15 25 -26 13z"/>
<path d="M1770 190 c0 -5 7 -10 15 -10 8 0 15 5 15 10 0 6 -7 10 -15 10 -8 0
-15 -4 -15 -10z"/>
<path d="M3347 192 c-4 -5 -1 -20 5 -34 9 -18 19 -25 40 -24 16 1 28 7 28 15
0 8 -6 11 -15 7 -17 -6 -47 3 -41 13 3 4 1 13 -3 20 -5 8 -11 9 -14 3z"/>
<path d="M2670 165 c-7 -14 -11 -28 -8 -31 4 -3 9 4 13 15 3 12 11 21 16 21 5
0 9 5 9 10 0 18 -17 10 -30 -15z"/>
<path d="M4871 174 c0 -11 3 -14 6 -6 3 7 2 16 -1 19 -3 4 -6 -2 -5 -13z"/>
<path d="M5138 168 c3 -14 8 -16 18 -7 7 6 18 8 24 4 5 -3 10 -1 10 4 0 6 -3
11 -7 12 -5 0 -17 2 -29 3 -16 2 -20 -2 -16 -16z"/>
<path d="M5300 175 c-7 -9 -8 -15 -2 -15 5 0 12 7 16 15 3 8 4 15 2 15 -2 0
-9 -7 -16 -15z"/>
<path d="M2460 170 c0 -5 7 -10 15 -10 8 0 15 5 15 10 0 6 -7 10 -15 10 -8 0
-15 -4 -15 -10z"/>
<path d="M3830 170 c0 -5 7 -7 15 -4 8 4 15 8 15 10 0 2 -7 4 -15 4 -8 0 -15
-4 -15 -10z"/>
<path d="M2857 145 c-4 -8 -2 -17 3 -20 6 -4 10 -1 10 5 0 6 4 8 10 5 6 -3 7
1 4 9 -8 20 -20 20 -27 1z"/>
<path d="M2978 152 c-23 -9 -11 -27 32 -45 l35 -14 -38 -16 c-20 -9 -40 -23
-43 -32 -5 -11 -10 -13 -19 -5 -10 8 -17 5 -29 -12 -16 -22 -15 -23 5 -26 13
-2 33 8 53 27 18 17 40 31 49 31 9 0 17 5 17 10 0 6 7 10 15 10 26 0 16 21
-15 33 -18 7 -30 19 -30 29 0 19 -5 21 -32 10z"/>
<path d="M3060 145 c0 -8 5 -15 10 -15 6 0 10 7 10 15 0 8 -4 15 -10 15 -5 0
-10 -7 -10 -15z"/>
<path d="M3200 144 c0 -14 3 -14 15 -4 8 7 15 14 15 16 0 2 -7 4 -15 4 -8 0
-15 -7 -15 -16z"/>
<path d="M5340 150 c20 -13 33 -13 25 0 -3 6 -14 10 -23 10 -15 0 -15 -2 -2
-10z"/>
<path d="M1842 70 c-1 -40 2 -70 7 -70 6 0 10 12 11 27 0 16 1 46 2 67 2 22
-2 41 -8 43 -7 2 -11 -22 -12 -67z"/>
<path d="M3293 133 c-15 -6 -18 -53 -3 -53 6 0 10 -13 10 -30 0 -16 5 -30 10
-30 6 0 10 5 10 11 0 7 12 22 27 35 20 17 24 27 17 34 -8 8 -15 6 -24 -5 -14
-17 -39 -20 -41 -5 -5 29 -2 35 21 41 19 5 20 7 5 7 -11 0 -26 -2 -32 -5z"/>
<path d="M3772 113 c-6 -2 -10 -9 -7 -13 7 -11 35 -2 35 11 0 10 -8 10 -28 2z"/>
<path d="M1820 95 c0 -8 -5 -15 -11 -15 -5 0 -7 -4 -4 -10 11 -17 22 -11 27
15 3 14 1 25 -3 25 -5 0 -9 -7 -9 -15z"/>
<path d="M2025 100 c-3 -5 -2 -10 4 -10 5 0 13 5 16 10 3 6 2 10 -4 10 -5 0
-13 -4 -16 -10z"/>
<path d="M2815 100 c-3 -5 -1 -10 4 -10 6 0 11 5 11 10 0 6 -2 10 -4 10 -3 0
-8 -4 -11 -10z"/>
<path d="M3165 80 c-21 -16 -41 -30 -46 -30 -5 0 -6 -7 -3 -15 5 -11 13 -10
45 11 35 22 39 23 39 6 0 -10 -5 -23 -11 -29 -7 -7 -5 -12 8 -15 16 -4 18 0
15 24 -3 18 2 36 12 47 16 18 12 31 -9 31 -7 0 -29 -13 -50 -30z"/>
<path d="M2465 90 c-3 -5 -1 -10 4 -10 6 0 11 5 11 10 0 6 -2 10 -4 10 -3 0
-8 -4 -11 -10z"/>
<path d="M2604 85 c-3 -8 -3 -18 0 -23 9 -15 -22 -35 -44 -29 -24 6 -25 1 -6
-19 18 -17 77 -18 95 -1 11 10 14 10 18 0 6 -15 53 -18 53 -3 0 6 -7 10 -15
10 -8 0 -15 5 -15 10 0 19 32 10 37 -10 6 -23 33 -27 33 -5 0 8 5 15 10 15 6
0 10 -7 10 -16 0 -9 5 -14 12 -12 18 6 22 28 5 28 -19 0 -27 22 -20 49 7 28
-27 29 -44 2 -8 -13 -19 -18 -33 -14 -14 4 -20 1 -20 -11 0 -28 -20 -17 -27
15 -4 22 -8 27 -14 17 -7 -10 -9 -10 -9 0 0 17 -19 15 -26 -3z m36 -37 c0 -18
-2 -20 -9 -8 -6 8 -7 18 -5 22 9 14 14 9 14 -14z"/>
<path d="M2910 65 c0 -9 5 -15 11 -13 6 2 11 8 11 13 0 5 -5 11 -11 13 -6 2
-11 -4 -11 -13z"/>
<path d="M2081 54 c0 -11 3 -14 6 -6 3 7 2 16 -1 19 -3 4 -6 -2 -5 -13z"/>
<path d="M2430 61 c0 -12 39 -25 47 -17 4 3 -1 6 -10 6 -9 0 -17 5 -17 10 0 6
-4 10 -10 10 -5 0 -10 -4 -10 -9z"/>
<path d="M3272 50 c0 -14 2 -19 5 -12 2 6 2 18 0 25 -3 6 -5 1 -5 -13z"/>
<path d="M2020 50 c0 -5 5 -10 10 -10 6 0 10 5 10 10 0 6 -4 10 -10 10 -5 0
-10 -4 -10 -10z"/>
<path d="M2850 29 c0 -5 5 -7 10 -4 6 3 10 8 10 11 0 2 -4 4 -10 4 -5 0 -10
-5 -10 -11z"/>
<path d="M3027 23 c-16 -15 -5 -23 33 -23 29 0 40 4 40 15 0 10 -10 15 -33 15
-19 0 -37 -3 -40 -7z"/>
<path d="M2070 10 c0 -5 5 -10 11 -10 5 0 7 5 4 10 -3 6 -8 10 -11 10 -2 0 -4
-4 -4 -10z"/>
</g>
</svg>
